<?xml version="1.0" encoding="UTF-8"?>
<svg version="1.1" xmlns="http://www.w3.org/2000/svg" width="500" height="500">
<path d="M0 0 C165 0 330 0 500 0 C500 165 500 330 500 500 C335 500 170 500 0 500 C0 335 0 170 0 0 Z " fill="#111110" transform="translate(0,0)"/>
<path d="M0 0 C3.48581079 2.99941859 6.27473934 5.82634967 7.05541992 10.52856445 C7.18967732 13.07229465 7.18395365 15.57858284 7.125 18.125 C7.13208984 18.97642578 7.13917969 19.82785156 7.14648438 20.70507812 C7.09388531 26.01758393 6.26655407 30.42334449 4.37719727 35.390625 C3.34894221 38.25590775 3.15423833 40.31290309 3.6875 43.3125 C7.54866132 49.07322864 11.77224595 51.07110842 18.0625 53.6875 C31.07590478 59.4563416 31.07590478 59.4563416 34.6875 66.3125 C37.66789039 75.99943343 35.21155741 86.87179145 33.4375 96.5625 C33.20788574 97.83504639 32.97827148 99.10759277 32.74169922 100.41870117 C32.07441405 104.05352727 31.38568765 107.6834991 30.6875 111.3125 C30.51702148 112.22402832 30.34654297 113.13555664 30.17089844 114.07470703 C28.60864001 122.21934732 26.96577882 130.33421782 19.6875 135.3125 C16.96484375 136.00390625 16.96484375 136.00390625 14.6875 136.3125 C14.9040625 137.13105469 15.120625 137.94960937 15.34375 138.79296875 C20.60140425 161.89257007 18.36241291 185.66351012 12.1328125 208.33081055 C11.63848064 210.53064152 11.47759313 212.60767383 11.37109375 214.859375 C11.32919922 215.70371094 11.28730469 216.54804688 11.24414062 217.41796875 C11.20482422 218.29066406 11.16550781 219.16335937 11.125 220.0625 C11.06022461 221.39474609 11.06022461 221.39474609 10.99414062 222.75390625 C10.88836385 224.93995963 10.78627454 227.12612089 10.6875 229.3125 C12.27691406 228.879375 12.27691406 228.879375 13.8984375 228.4375 C15.28642288 228.06236881 16.67444567 227.68737599 18.0625 227.3125 C18.76117188 227.12171875 19.45984375 226.9309375 20.1796875 226.734375 C25.4609375 225.3125 25.4609375 225.3125 27.6875 225.3125 C29.15326815 221.93382503 30.04691694 218.87681994 30.5390625 215.23046875 C30.66796875 214.29912109 30.796875 213.36777344 30.9296875 212.40820312 C31.05601562 211.44849609 31.18234375 210.48878906 31.3125 209.5 C31.4465625 208.52095703 31.580625 207.54191406 31.71875 206.53320312 C32.04739962 204.12701838 32.37012087 201.72019281 32.6875 199.3125 C33.0175 199.3125 33.3475 199.3125 33.6875 199.3125 C33.6968457 199.98829102 33.70619141 200.66408203 33.71582031 201.36035156 C33.76957301 204.4284711 33.85320992 207.49507387 33.9375 210.5625 C33.95167969 211.62597656 33.96585937 212.68945312 33.98046875 213.78515625 C34.01269531 214.80996094 34.04492188 215.83476562 34.078125 216.890625 C34.1095459 218.30456543 34.1095459 218.30456543 34.14160156 219.74707031 C34.84308164 223.04365021 36.07255063 224.24272509 38.6875 226.3125 C41.94108683 227.22070365 41.94108683 227.22070365 45.4375 227.5625 C46.60796875 227.71203125 47.7784375 227.8615625 48.984375 228.015625 C50.32242188 228.16257812 50.32242188 228.16257812 51.6875 228.3125 C51.6875 228.6425 51.6875 228.9725 51.6875 229.3125 C50.86765625 229.42207031 50.0478125 229.53164063 49.203125 229.64453125 C48.12546875 229.80308594 47.0478125 229.96164062 45.9375 230.125 C44.33648437 230.35123047 44.33648437 230.35123047 42.703125 230.58203125 C39.43599704 231.37342105 37.89665712 231.77606034 35.6875 234.3125 C35.07149845 237.13390333 34.67647773 239.64969271 34.4375 242.5 C34.32148438 243.62438477 34.32148438 243.62438477 34.203125 244.77148438 C34.01505605 246.61691097 33.84911424 248.4645687 33.6875 250.3125 C33.3575 250.3125 33.0275 250.3125 32.6875 250.3125 C32.57792969 249.50425781 32.46835937 248.69601562 32.35546875 247.86328125 C32.19691406 246.79464844 32.03835938 245.72601563 31.875 244.625 C31.72417969 243.56925781 31.57335937 242.51351562 31.41796875 241.42578125 C30.65345909 238.16741655 29.64794434 236.01173248 27.6875 233.3125 C22.69461239 230.87694507 17.15732481 230.72327736 11.6875 230.3125 C11.71070313 231.30507813 11.73390625 232.29765625 11.7578125 233.3203125 C11.93941934 244.40383316 10.71633913 254.86433599 8.6640625 265.75 C6.77410936 276.01286552 5.31426513 285.98086162 5.3125 296.4375 C5.31032471 297.79584961 5.31032471 297.79584961 5.30810547 299.18164062 C5.39401201 304.27425746 5.99487744 307.23463232 7.6875 312.3125 C-3.5325 312.3125 -14.7525 312.3125 -26.3125 312.3125 C-25.6525 309.0125 -24.9925 305.7125 -24.3125 302.3125 C-24.15663762 293.36044996 -25.66781769 284.49099671 -27.12695312 275.68286133 C-29.61687682 260.60680237 -30.69179865 245.90246516 -30.8125 230.625 C-30.92857541 215.9897707 -32.03812897 202.72534795 -35.77832031 188.50146484 C-39.86346398 171.76133772 -37.84246065 152.95374306 -34.3125 136.3125 C-35.199375 136.10625 -36.08625 135.9 -37 135.6875 C-41.74584413 133.71752697 -44.19379326 130.85891843 -46.21582031 126.25634766 C-47.05079751 123.89812908 -47.76371755 121.53420476 -48.4375 119.125 C-48.68902832 118.24642334 -48.94055664 117.36784668 -49.19970703 116.46264648 C-52.71644216 103.72787167 -54.5424543 91.21412346 -54.6875 78 C-54.70151855 77.122229 -54.71553711 76.24445801 -54.72998047 75.34008789 C-54.67931932 68.64697101 -53.53133497 64.50872675 -48.62890625 59.65625 C-44.55858537 56.50957402 -39.90239065 54.84193295 -35.14648438 52.99609375 C-30.04948503 50.91469801 -25.87959674 48.44669348 -23.3125 43.3125 C-23.33642975 41.29775281 -23.33642975 41.29775281 -23.625 39.0625 C-23.70363281 38.31484375 -23.78226563 37.5671875 -23.86328125 36.796875 C-24.24688481 34.24101753 -24.24688481 34.24101753 -25.3203125 31.6640625 C-27.71876153 23.56221498 -28.35403239 12.07808892 -24.9921875 4.23046875 C-18.5409886 -3.5659353 -8.69391644 -4.4289763 0 0 Z " fill="#F7D340" transform="translate(268.3125,29.6875)"/>
<path d="M0 0 C0.33 0 0.66 0 1 0 C1.01401855 1.01368652 1.01401855 1.01368652 1.02832031 2.04785156 C1.08207301 5.1159711 1.16570992 8.18257387 1.25 11.25 C1.26417969 12.31347656 1.27835937 13.37695312 1.29296875 14.47265625 C1.32519531 15.49746094 1.35742188 16.52226562 1.390625 17.578125 C1.41157227 18.52075195 1.43251953 19.46337891 1.45410156 20.43457031 C2.15558164 23.73115021 3.38505063 24.93022509 6 27 C9.25358683 27.90820365 9.25358683 27.90820365 12.75 28.25 C13.92046875 28.39953125 15.0909375 28.5490625 16.296875 28.703125 C17.18890625 28.80109375 18.0809375 28.8990625 19 29 C19 29.33 19 29.66 19 30 C18.18015625 30.10957031 17.3603125 30.21914063 16.515625 30.33203125 C15.43796875 30.49058594 14.3603125 30.64914062 13.25 30.8125 C12.18265625 30.96332031 11.1153125 31.11414063 10.015625 31.26953125 C6.74849704 32.06092105 5.20915712 32.46356034 3 35 C2.38399845 37.82140333 1.98897773 40.33719271 1.75 43.1875 C1.63398438 44.31188477 1.63398438 44.31188477 1.515625 45.45898438 C1.32755605 47.30441097 1.16161424 49.1520687 1 51 C0.67 51 0.34 51 0 51 C-0.10957031 50.19175781 -0.21914063 49.38351562 -0.33203125 48.55078125 C-0.49058594 47.48214844 -0.64914062 46.41351563 -0.8125 45.3125 C-0.96332031 44.25675781 -1.11414063 43.20101562 -1.26953125 42.11328125 C-2.03433612 38.85365835 -3.03546456 36.69821943 -5 34 C-9.73570117 31.74490421 -14.83151124 31.43645016 -20 31 C-20 30.34 -20 29.68 -20 29 C-18.41058594 28.76216797 -18.41058594 28.76216797 -16.7890625 28.51953125 C-15.40084177 28.2850345 -14.01283101 28.04929233 -12.625 27.8125 C-11.92632812 27.71130859 -11.22765625 27.61011719 -10.5078125 27.50585938 C-8.20258368 27.14522046 -8.20258368 27.14522046 -5 26 C-3.30864486 22.7251278 -2.63844863 19.54850579 -2.1484375 15.91796875 C-2.01953125 14.98662109 -1.890625 14.05527344 -1.7578125 13.09570312 C-1.56832031 11.65614258 -1.56832031 11.65614258 -1.375 10.1875 C-1.2409375 9.20845703 -1.106875 8.22941406 -0.96875 7.22070312 C-0.64010038 4.81451838 -0.31737913 2.40769281 0 0 Z " fill="#F2E37B" transform="translate(301,229)"/>
<path d="M0 0 C0.33 0.99 0.66 1.98 1 3 C1.66 3 2.32 3 3 3 C2.58169356 6.73158041 2.1369998 10.45955888 1.6875 14.1875 C1.56955078 15.24259766 1.45160156 16.29769531 1.33007812 17.38476562 C1.20439453 18.40634766 1.07871094 19.42792969 0.94921875 20.48046875 C0.83924561 21.41785889 0.72927246 22.35524902 0.6159668 23.32104492 C-0.08634642 26.37553679 -1.18974208 28.45199136 -3 31 C-5.234375 32.109375 -5.234375 32.109375 -7.75 32.75 C-8.56984375 32.97171875 -9.3896875 33.1934375 -10.234375 33.421875 C-13.47379396 34.09904168 -16.72021233 34.56377208 -20 35 C-20.0582253 31.91674642 -20.09367134 28.83363495 -20.125 25.75 C-20.14175781 24.87730469 -20.15851563 24.00460938 -20.17578125 23.10546875 C-20.18222656 22.26113281 -20.18867188 21.41679687 -20.1953125 20.546875 C-20.20578613 19.77182617 -20.21625977 18.99677734 -20.22705078 18.19824219 C-19.97326556 15.74116461 -19.22444152 14.12688458 -18 12 C-17.67 13.32 -17.34 14.64 -17 16 C-16.34 16 -15.68 16 -15 16 C-15 21.28 -15 26.56 -15 32 C-13.02 31.67 -11.04 31.34 -9 31 C-9 30.34 -9 29.68 -9 29 C-8.34 29 -7.68 29 -7 29 C-7 27.35 -7 25.7 -7 24 C-6.01 23.67 -5.02 23.34 -4 23 C-3.67 20.03 -3.34 17.06 -3 14 C-2.34 14 -1.68 14 -1 14 C-0.92937056 10.96293391 -0.93466312 8.28094859 -1.625 5.3125 C-2 3 -2 3 0 0 Z " fill="#1A140D" transform="translate(299,224)"/>
<path d="M0 0 C4.28702893 7.90635631 4.3144797 16.90016342 4.4140625 25.6953125 C4.43342865 26.76876923 4.4527948 27.84222595 4.4727478 28.94821167 C4.53201033 32.34039636 4.57871392 35.73261598 4.625 39.125 C4.66322893 41.44011808 4.70228344 43.75522269 4.7421875 46.0703125 C4.83766729 51.71342108 4.92286701 57.3566124 5 63 C2 61 2 61 1.3046875 58.3203125 C1.09199219 56.73863281 1.09199219 56.73863281 0.875 55.125 C0.3057232 50.90180697 0.3057232 50.90180697 -0.5859375 46.7421875 C-1.10668436 44.55112051 -0.5407599 43.1630396 0 41 C-0.15082031 40.43796875 -0.30164063 39.8759375 -0.45703125 39.296875 C-1.98850615 32.81840565 -1.81472242 24.93229815 0.125 18.5625 C1.17413742 14.29101193 0.37178224 12.11534672 -1 8 C-1.30508475 2.61016949 -1.30508475 2.61016949 0 0 Z " fill="#0F120D" transform="translate(234,226)"/>
<path d="M0 0 C0.99 0.53109375 1.98 1.0621875 3 1.609375 C3.63623291 1.94976807 4.27246582 2.29016113 4.92797852 2.64086914 C6.3147656 3.38320138 7.70066559 4.12719315 9.08569336 4.87280273 C12.53639583 6.72228143 15.98301293 8.47239518 19.5625 10.0625 C24.02013956 12.57498775 27.95179248 15.9125524 29.64453125 20.8984375 C31.4595229 31.62882768 28.96650134 42.46517142 27 53 C26.67 53 26.34 53 26 53 C25.94208156 49.87507749 25.90643254 46.75029234 25.875 43.625 C25.85824219 42.73554687 25.84148437 41.84609375 25.82421875 40.9296875 C25.81777344 40.07890625 25.81132812 39.228125 25.8046875 38.3515625 C25.79421387 37.56604004 25.78374023 36.78051758 25.77294922 35.97119141 C26 34 26 34 28 32 C28.16677282 28.41656024 28.16677282 28.41656024 28 25 C27.34 25 26.68 25 26 25 C25.67 22.03 25.34 19.06 25 16 C24.34 16 23.68 16 23 16 C22.67 15.34 22.34 14.68 22 14 C20.02111039 13.27306096 18.02045442 12.60183749 16 12 C16 12.99 16 13.98 16 15 C15.34 15 14.68 15 14 15 C14.33 13.35 14.66 11.7 15 10 C10.71 9.01 6.42 8.02 2 7 C1.34 4.69 0.68 2.38 0 0 Z " fill="#E1C957" transform="translate(274,77)"/>
<path d="M0 0 C0.433125 0.598125 0.86625 1.19625 1.3125 1.8125 C1.869375 2.534375 2.42625 3.25625 3 4 C3.391875 4.556875 3.78375 5.11375 4.1875 5.6875 C7.17071103 7.84775626 10.37412878 7.70279744 14 8 C13.195625 8.639375 12.39125 9.27875 11.5625 9.9375 C8.5068643 12.07124067 8.5068643 12.07124067 7.68359375 15.28515625 C7.60238281 16.20167969 7.52117187 17.11820313 7.4375 18.0625 C7.35371094 18.98160156 7.26992188 19.90070312 7.18359375 20.84765625 C7.09271484 21.91306641 7.09271484 21.91306641 7 23 C4 19.25 4 19.25 4 17 C0.98509443 15.99503148 -1.04181692 15.89664697 -4.1875 15.9375 C-5.08855469 15.94652344 -5.98960937 15.95554687 -6.91796875 15.96484375 C-7.94857422 15.98224609 -7.94857422 15.98224609 -9 16 C-8.236875 15.2575 -7.47375 14.515 -6.6875 13.75 C-2.12822314 9.08469344 -0.6385812 6.64124445 0 0 Z " fill="#E2D589" transform="translate(299,37)"/>
<path d="M0 0 C0.33 0 0.66 0 1 0 C1.125 2.375 1.125 2.375 1 5 C0.34 5.66 -0.32 6.32 -1 7 C-1.16681109 10.08347826 -1.16681109 10.08347826 -1 13 C-0.67 13 -0.34 13 0 13 C0.33 10.69 0.66 8.38 1 6 C1.66 6 2.32 6 3 6 C3.10947633 16.72867997 2.96288008 27.3051534 2 38 C-2.07796456 30.09078442 -3.4884788 23.07036803 -3.375 14.1875 C-3.38660156 13.26001953 -3.39820313 12.33253906 -3.41015625 11.37695312 C-3.40628906 10.48298828 -3.40242187 9.58902344 -3.3984375 8.66796875 C-3.39336182 7.46563599 -3.39336182 7.46563599 -3.38818359 6.23901367 C-2.90994483 3.4805686 -1.85608559 2.0620881 0 0 Z " fill="#F9D244" transform="translate(245,33)"/>
<path d="M0 0 C0.639375 0.639375 1.27875 1.27875 1.9375 1.9375 C5.91930882 4.61912635 9.294792 4.79498004 14 5 C13.505 5.639375 13.01 6.27875 12.5 6.9375 C10.49049723 11.04023483 10.73614328 14.51443582 11 19 C10.01 18.319375 9.02 17.63875 8 16.9375 C3.67993022 14.41966792 0.79020574 14.99153563 -4 16 C-3.01 14.5459375 -3.01 14.5459375 -2 13.0625 C0.51316476 8.74410421 0.3978512 4.87367725 0 0 Z " fill="#F0DF86" transform="translate(194,170)"/>
<path d="M0 0 C2.95942468 0.12565894 5.91356405 0.09512599 8.875 0.0625 C10.050625 0.05573242 10.050625 0.05573242 11.25 0.04882812 C13.16670014 0.03714093 15.08336048 0.01920908 17 0 C17 1.32 17 2.64 17 4 C17.61875 4.061875 18.2375 4.12375 18.875 4.1875 C21 5 21 5 22.25 7.5625 C22.4975 8.366875 22.745 9.17125 23 10 C22.34 10.33 21.68 10.66 21 11 C20.505 10.236875 20.01 9.47375 19.5 8.6875 C15.726659 4.63115843 11.99502218 3.15714623 6.46875 2.8671875 C0.33547881 3.18124054 -2.7343937 4.62775354 -7 9 C-7.66 9.66 -8.32 10.32 -9 11 C-10.24546405 8.50907189 -9.7767578 7.58919267 -9 5 C-9.99 5 -10.98 5 -12 5 C-12 4.01 -12 3.02 -12 2 C-7.30421541 -0.79510987 -5.25522648 -0.93317106 0 0 Z " fill="#0F1209" transform="translate(252,25)"/>
<path d="M0 0 C1.4800841 0.11362262 2.95910074 0.24122908 4.4375 0.375 C5.26121094 0.44460938 6.08492188 0.51421875 6.93359375 0.5859375 C7.95646484 0.79089844 7.95646484 0.79089844 9 1 C9.33 1.66 9.66 2.32 10 3 C5.545 2.01 5.545 2.01 1 1 C1.33 9.91 1.66 18.82 2 28 C1.01 28 0.02 28 -1 28 C-0.979375 28.969375 -0.95875 29.93875 -0.9375 30.9375 C-0.9375 36.10559698 -1.43654489 41.25662022 -2.4765625 46.3203125 C-3.36102026 50.84820817 -3.83731104 55.43838519 -4.40234375 60.015625 C-4.59957031 61.00046875 -4.79679687 61.9853125 -5 63 C-5.99 63.495 -5.99 63.495 -7 64 C-7.38385628 56.04452238 -6.18501379 48.78097119 -4.625 41 C-2.02377908 27.37620809 -0.74271705 13.83854063 0 0 Z " fill="#1D1103" transform="translate(280,260)"/>
<path d="M0 0 C2.77132017 0.30859025 5.54199986 0.6217033 8.3125 0.9375 C9.49102539 1.06801758 9.49102539 1.06801758 10.69335938 1.20117188 C11.45068359 1.28818359 12.20800781 1.37519531 12.98828125 1.46484375 C14.03302612 1.58267212 14.03302612 1.58267212 15.09887695 1.70288086 C17 2 17 2 20 3 C20 3.66 20 4.32 20 5 C19.030625 5.4125 18.06125 5.825 17.0625 6.25 C16.051875 6.8275 15.04125 7.405 14 8 C13.67 9.32 13.34 10.64 13 12 C8.71 12 4.42 12 0 12 C1 8 1 8 4 6 C6.64017635 5.18220159 9.30270591 4.6190511 12 4 C11.38511719 3.96261719 10.77023437 3.92523438 10.13671875 3.88671875 C9.32847656 3.82097656 8.52023437 3.75523437 7.6875 3.6875 C6.88699219 3.62949219 6.08648437 3.57148438 5.26171875 3.51171875 C2.63727666 2.91793306 1.69179328 2.04219706 0 0 Z " fill="#111108" transform="translate(304,254)"/>
<path d="M0 0 C0.33 0 0.66 0 1 0 C1.60328892 4.08729207 2.1905237 8.17649925 2.76391602 12.26806641 C2.96052091 13.65539285 3.16126216 15.0421404 3.36645508 16.42822266 C4.92352741 26.97367586 5.55672899 35.83349323 2 46 C6.66326382 45.88188019 11.3263088 45.75764134 15.98925781 45.62768555 C17.57612657 45.58432759 19.16304224 45.54265313 20.75 45.50268555 C23.02878979 45.44500368 25.30734322 45.38130362 27.5859375 45.31640625 C28.29744965 45.29969376 29.00896179 45.28298126 29.74203491 45.26576233 C33.49660817 45.20278063 33.49660817 45.20278063 37 44 C37 44.99 37 45.98 37 47 C25.12 47 13.24 47 1 47 C0.67 45.35 0.34 43.7 0 42 C0.66 42 1.32 42 2 42 C1.85949111 38.1872846 1.71161266 34.37488784 1.5625 30.5625 C1.52318359 29.49322266 1.48386719 28.42394531 1.44335938 27.32226562 C1.22405764 21.8059836 0.87429723 16.36309885 0.20727539 10.88305664 C-0.19264937 7.24981788 -0.05792927 3.64954418 0 0 Z " fill="#382909" transform="translate(240,296)"/>
<path d="M0 0 C0.33 0 0.66 0 1 0 C1.02505615 0.91700684 1.0501123 1.83401367 1.07592773 2.77880859 C1.17186288 6.22681775 1.27103983 9.67470367 1.37231445 13.12255859 C1.4152523 14.60624631 1.45695012 16.08997051 1.49731445 17.57373047 C1.72071723 25.75413331 2.04526601 33.86470366 3 42 C3.66 42 4.32 42 5 42 C5.06058594 42.63808594 5.12117187 43.27617187 5.18359375 43.93359375 C5.30927734 45.17302734 5.30927734 45.17302734 5.4375 46.4375 C5.51871094 47.26121094 5.59992188 48.08492187 5.68359375 48.93359375 C5.78930815 50.98662025 5.78930815 50.98662025 7 52 C7.08700342 53.63472882 7.10701063 55.27314055 7.09765625 56.91015625 C7.09443359 57.89951172 7.09121094 58.88886719 7.08789062 59.90820312 C7.07951172 60.94912109 7.07113281 61.99003906 7.0625 63.0625 C7.05798828 64.10728516 7.05347656 65.15207031 7.04882812 66.22851562 C7.03699913 68.8190666 7.02051689 71.40950559 7 74 C6.67 74 6.34 74 6 74 C5.98582031 73.1234375 5.97164062 72.246875 5.95703125 71.34375 C5.54613223 60.41605705 3.53191145 50.12888208 1.15625 39.46875 C-0.73637076 30.74604303 -1.1572285 22.530808 -1.125 13.625 C-1.12886719 12.53316406 -1.13273438 11.44132813 -1.13671875 10.31640625 C-1.13542969 9.27613281 -1.13414062 8.23585937 -1.1328125 7.1640625 C-1.13168457 6.21998535 -1.13055664 5.2759082 -1.12939453 4.30322266 C-1 2 -1 2 0 0 Z " fill="#DFC95C" transform="translate(232,182)"/>
<path d="M0 0 C0.33 0 0.66 0 1 0 C1.01458252 0.6705542 1.02916504 1.3411084 1.04418945 2.03198242 C1.118883 5.08438822 1.21547299 8.13572585 1.3125 11.1875 C1.33505859 12.24259766 1.35761719 13.29769531 1.38085938 14.38476562 C1.41630859 15.40634766 1.45175781 16.42792969 1.48828125 17.48046875 C1.51446533 18.41785889 1.54064941 19.35524902 1.56762695 20.32104492 C2.23033082 24.42711466 4.09473302 27.09473302 7 30 C5.68 30.33 4.36 30.66 3 31 C3 30.34 3 29.68 3 29 C0.69 29 -1.62 29 -4 29 C-4.33 29.66 -4.66 30.32 -5 31 C-5.25 24.375 -5.25 24.375 -3 21 C-2.45352178 18.68566325 -2.45352178 18.68566325 -2.1484375 16.11328125 C-1.95507812 14.7065918 -1.95507812 14.7065918 -1.7578125 13.27148438 C-1.63148438 12.29501953 -1.50515625 11.31855469 -1.375 10.3125 C-1.17390625 8.83040039 -1.17390625 8.83040039 -0.96875 7.31835938 C-0.6388898 4.87975003 -0.31626065 2.44040404 0 0 Z " fill="#F0DE7F" transform="translate(301,229)"/>
<path d="M0 0 C4.28702893 7.90635631 4.3144797 16.90016342 4.4140625 25.6953125 C4.43342865 26.76876923 4.4527948 27.84222595 4.4727478 28.94821167 C4.53201033 32.34039636 4.57871392 35.73261598 4.625 39.125 C4.66322893 41.44011808 4.70228344 43.75522269 4.7421875 46.0703125 C4.83766729 51.71342108 4.92286701 57.3566124 5 63 C4.01 62.34 3.02 61.68 2 61 C1.77001006 57.9321258 1.7252432 55.06680715 1.8125 52.00390625 C1.82385986 51.10059067 1.83521973 50.19727509 1.84692383 49.2665863 C1.89588953 45.39864954 1.97942645 41.53166097 2.06152344 37.66430664 C2.55128793 23.6309784 2.55128793 23.6309784 -0.31933594 9.99609375 C-1.2470196 7.2755982 -1.29142204 4.8413649 -1 2 C-0.67 1.34 -0.34 0.68 0 0 Z " fill="#2B1F05" transform="translate(234,226)"/>
<path d="M0 0 C0.33 0 0.66 0 1 0 C1.03738281 1.07894531 1.07476562 2.15789062 1.11328125 3.26953125 C1.85524971 21.3833729 4.83133645 38.00623979 10.49682617 55.23852539 C11 57 11 57 11 59 C8 58 8 58 7.12109375 56.3203125 C5.49089779 51.08505462 4.36886828 45.90430442 3.46875 40.49609375 C3.03472445 37.8600939 3.03472445 37.8600939 1.9375 34.875 C-0.56097917 27.2129972 -0.12785321 18.90556505 -0.0625 10.9375 C-0.05798828 9.88111328 -0.05347656 8.82472656 -0.04882812 7.73632812 C-0.03715918 5.15749092 -0.02078885 2.57877706 0 0 Z " fill="#3D2F0C" transform="translate(213,101)"/>
<path d="M0 0 C2.63314334 3.94971501 1.78347302 6.5682519 1 11 C0.77763672 12.25925293 0.77763672 12.25925293 0.55078125 13.54394531 C0.21610954 15.40405067 -0.12092434 17.26373214 -0.45996094 19.12304688 C-2.73512946 31.7701862 -3.7472838 44.16201699 -4 57 C-4.33 57 -4.66 57 -5 57 C-5.2278425 53.48014853 -5.42872813 49.95924178 -5.625 46.4375 C-5.68945312 45.44685547 -5.75390625 44.45621094 -5.8203125 43.43554688 C-6.12264862 37.74784866 -5.72664818 33.47594139 -4 28 C-3.48577666 24.36603683 -3.17993863 20.7192641 -2.875 17.0625 C-2.78863281 16.09248047 -2.70226562 15.12246094 -2.61328125 14.12304688 C-2.40278881 11.74915989 -2.19852115 9.37491294 -2 7 C-1.34 7 -0.68 7 0 7 C0 4.69 0 2.38 0 0 Z " fill="#DCC456" transform="translate(277,279)"/>
<path d="M0 0 C-1 2 -1 2 -3.07421875 2.82421875 C-4.36779297 3.25154297 -4.36779297 3.25154297 -5.6875 3.6875 C-11.58008351 5.92465563 -15.18620104 9.37240209 -18 15 C-18.09503971 16.41286385 -18.13072853 17.8300385 -18.1328125 19.24609375 C-18.13410156 20.08333984 -18.13539063 20.92058594 -18.13671875 21.78320312 C-18.13285156 22.65912109 -18.12898437 23.53503906 -18.125 24.4375 C-18.12886719 25.30955078 -18.13273438 26.18160156 -18.13671875 27.08007812 C-18.13542969 27.91861328 -18.13414062 28.75714844 -18.1328125 29.62109375 C-18.13168457 30.3886499 -18.13055664 31.15620605 -18.12939453 31.94702148 C-18.07526344 34.20075403 -18.07526344 34.20075403 -17 37 C-17.4375 39.6875 -17.4375 39.6875 -18 42 C-18.33 42 -18.66 42 -19 42 C-20.00148827 36.12837119 -20.21649742 30.38839596 -20.25 24.4375 C-20.270625 23.51775391 -20.29125 22.59800781 -20.3125 21.65039062 C-20.34311673 16.32690626 -20.01072997 12.58743927 -17 8 C-13.3306692 4.3306692 -5.32239536 -2.66119768 0 0 Z " fill="#E1C958" transform="translate(234,84)"/>
<path d="M0 0 C0.33 0 0.66 0 1 0 C1.12117187 0.88042969 1.24234375 1.76085937 1.3671875 2.66796875 C1.53476563 3.82941406 1.70234375 4.99085938 1.875 6.1875 C2.03742188 7.33605469 2.19984375 8.48460937 2.3671875 9.66796875 C2.94522306 12.71157575 3.84420062 15.14690468 5 18 C6.26613511 23.43084369 6.11388985 28.83280229 6.0625 34.375 C6.05798828 35.30183594 6.05347656 36.22867188 6.04882812 37.18359375 C6.03711574 39.45579709 6.02071372 41.72786388 6 44 C5.67 44 5.34 44 5 44 C4.88406494 43.12263184 4.76812988 42.24526367 4.64868164 41.34130859 C4.21524083 38.06483394 3.78089448 34.78848192 3.34594727 31.51220703 C3.15841342 30.09819215 2.9712334 28.68413028 2.78442383 27.27001953 C2.51478138 25.22936545 2.2438379 23.18888754 1.97265625 21.1484375 C1.81031494 19.92302246 1.64797363 18.69760742 1.48071289 17.43505859 C1.16587881 15.18533002 0.82177876 12.93945809 0.4453125 10.69921875 C-0.15246032 7.07587649 -0.06322799 3.66722327 0 0 Z " fill="#E5CD59" transform="translate(239,282)"/>
<path d="M0 0 C0.99 0.66 1.98 1.32 3 2 C2.67 4.97 2.34 7.94 2 11 C2.928125 10.896875 3.85625 10.79375 4.8125 10.6875 C8 11 8 11 9.9375 13.3125 C11 16 11 16 10 19 C9.649375 18.525625 9.29875 18.05125 8.9375 17.5625 C6.10480574 15.27806915 3.57493237 15.25087245 0 15 C-2.32158065 15.34659295 -2.32158065 15.34659295 -4 16 C-3.01 14.5459375 -3.01 14.5459375 -2 13.0625 C0.51316476 8.74410421 0.3978512 4.87367725 0 0 Z " fill="#EBDC98" transform="translate(194,170)"/>
<path d="M0 0 C1.98 0.99 1.98 0.99 4 2 C4 2.66 4 3.32 4 4 C4.66 4 5.32 4 6 4 C6.05840224 8.18744075 6.09373166 12.37477565 6.125 16.5625 C6.14175781 17.74392578 6.15851563 18.92535156 6.17578125 20.14257812 C6.2094585 26.15396759 6.11038894 31.34183122 4 37 C3.34 37 2.68 37 2 37 C2.144375 35.98421875 2.28875 34.9684375 2.4375 33.921875 C5.15177455 17.55523821 5.15177455 17.55523821 1 2 C0.67 1.34 0.34 0.68 0 0 Z " fill="#2C2005" transform="translate(299,91)"/>
<path d="M0 0 C0.33 0 0.66 0 1 0 C1.125 2.375 1.125 2.375 1 5 C0.34 5.66 -0.32 6.32 -1 7 C-1.17318792 9.48040325 -1.23236285 11.83559848 -1.1875 14.3125 C-1.18105469 15.62863281 -1.17460937 16.94476563 -1.16796875 18.30078125 C-1.02973512 21.3451358 -0.71349651 24.04897842 0 27 C0.66 27 1.32 27 2 27 C2 30.63 2 34.26 2 38 C-2.01475098 29.97049804 -3.48964473 23.16163481 -3.375 14.1875 C-3.38660156 13.26001953 -3.39820313 12.33253906 -3.41015625 11.37695312 C-3.40628906 10.48298828 -3.40242187 9.58902344 -3.3984375 8.66796875 C-3.39336182 7.46563599 -3.39336182 7.46563599 -3.38818359 6.23901367 C-2.90994483 3.4805686 -1.85608559 2.0620881 0 0 Z " fill="#E3CA58" transform="translate(245,33)"/>
<path d="M0 0 C0 1.32 0 2.64 0 4 C0.61875 4.061875 1.2375 4.12375 1.875 4.1875 C4 5 4 5 5.25 7.5625 C5.4975 8.366875 5.745 9.17125 6 10 C5.01 10.495 5.01 10.495 4 11 C3.505 10.236875 3.01 9.47375 2.5 8.6875 C-1.30366971 4.59855507 -5.18978222 3.18414532 -10.7421875 2.8203125 C-13.16994644 2.813435 -15.57628157 2.86590082 -18 3 C-18 2.34 -18 1.68 -18 1 C-11.93303301 0.22959149 -6.11485027 -0.09706112 0 0 Z " fill="#2A2207" transform="translate(269,25)"/>
<path d="M0 0 C1.79970452 3.3316299 2.17180448 5.15058906 1.6875 8.9375 C1.58824219 9.77152344 1.48898437 10.60554688 1.38671875 11.46484375 C1.13663092 13.1043084 0.84861238 14.73862508 0.515625 16.36328125 C-0.3669314 20.87635373 -0.83914071 25.45320713 -1.40234375 30.015625 C-1.59957031 31.00046875 -1.79679687 31.9853125 -2 33 C-2.99 33.495 -2.99 33.495 -4 34 C-4.31272716 26.24480076 -3.37074417 18.99744899 -2 11.375 C-1.80921875 10.27542969 -1.6184375 9.17585938 -1.421875 8.04296875 C-0.95537214 5.36057731 -0.48129606 2.67976943 0 0 Z " fill="#302807" transform="translate(277,290)"/>
<path d="M0 0 C0.33 0 0.66 0 1 0 C0.91923802 3.77171831 0.80638565 7.54180596 0.6875 11.3125 C0.66494141 12.38435547 0.64238281 13.45621094 0.61914062 14.56054688 C0.58369141 15.58857422 0.54824219 16.61660156 0.51171875 17.67578125 C0.48553467 18.62364502 0.45935059 19.57150879 0.43237305 20.5480957 C0 23 0 23 -3 26 C-3.33 20.72 -3.66 15.44 -4 10 C-3.01 10 -2.02 10 -1 10 C-0.67 6.7 -0.34 3.4 0 0 Z " fill="#EDC83E" transform="translate(285,182)"/>
<path d="M0 0 C3 1 3 1 4.16870117 2.78442383 C5.6260416 6.66852496 5.32753387 10.58325455 5.3125 14.6875 C5.32861328 15.54794922 5.34472656 16.40839844 5.36132812 17.29492188 C5.3659088 23.3734775 4.26354061 28.36555669 2 34 C1.67 34 1.34 34 1 34 C0.85540223 30.89114789 0.77316816 28.54063083 1.98828125 25.64453125 C5.15767603 17.36005146 2.67665386 8.09369142 0 0 Z " fill="#E6CD5D" transform="translate(270,33)"/>
<path d="M0 0 C0.33 0 0.66 0 1 0 C1 7.59 1 15.18 1 23 C-0.32 23 -1.64 23 -3 23 C-2.01 15.41 -1.02 7.82 0 0 Z " fill="#C5C185" transform="translate(301,229)"/>
<path d="M0 0 C0.66 0.66 1.32 1.32 2 2 C1.90625 3.98828125 1.90625 3.98828125 1.5 6.3125 C0.96291809 10.13998027 1.09181513 12.52036878 3 16 C2.01 16.33 1.02 16.66 0 17 C0 17.66 0 18.32 0 19 C-0.66 19 -1.32 19 -2 19 C-2.33 19.66 -2.66 20.32 -3 21 C-3.15639125 15.93683317 -2.62766071 11.49601562 -1.5 6.5625 C-1.2215625 5.32628906 -0.943125 4.09007812 -0.65625 2.81640625 C-0.4396875 1.88699219 -0.223125 0.95757812 0 0 Z " fill="#26190A" transform="translate(300,130)"/>
<path d="M0 0 C0.66 0 1.32 0 2 0 C1.30026422 8.11693505 -0.56772436 13.53256571 -7 19 C-7.99 19 -8.98 19 -10 19 C-10 18.34 -10 17.68 -10 17 C-9.38640625 16.76539063 -8.7728125 16.53078125 -8.140625 16.2890625 C-5.4369579 14.6609418 -4.90946466 13.27366164 -3.75 10.375 C-3.24726563 9.14910156 -3.24726563 9.14910156 -2.734375 7.8984375 C-2.49203125 7.27195313 -2.2496875 6.64546875 -2 6 C-1.34 6 -0.68 6 0 6 C0 4.02 0 2.04 0 0 Z " fill="#E3CC55" transform="translate(295,146)"/>
<path d="M0 0 C7.425 0.99 7.425 0.99 15 2 C15 2.33 15 2.66 15 3 C14.19175781 3.10957031 13.38351562 3.21914063 12.55078125 3.33203125 C10.94783203 3.56986328 10.94783203 3.56986328 9.3125 3.8125 C8.25675781 3.96332031 7.20101563 4.11414063 6.11328125 4.26953125 C2.89806247 5.02391759 0.71899677 6.15874987 -2 8 C-2.99 6.02 -3.98 4.04 -5 2 C-3.68 2 -2.36 2 -1 2 C-1 2.66 -1 3.32 -1 4 C-0.01 3.67 0.98 3.34 2 3 C1.34 2.01 0.68 1.02 0 0 Z " fill="#E7D998" transform="translate(305,256)"/>
<path d="M0 0 C2.23560002 2.23560002 2.62379524 3.51030684 3.5078125 6.5 C3.77207031 7.386875 4.03632813 8.27375 4.30859375 9.1875 C4.57800781 10.115625 4.84742188 11.04375 5.125 12 C5.40214844 12.928125 5.67929688 13.85625 5.96484375 14.8125 C8 21.70997537 8 21.70997537 8 24 C5 23 5 23 4.12109375 21.3203125 C1.97491787 14.42802196 0 7.26016579 0 0 Z " fill="#2F1F07" transform="translate(216,136)"/>
<path d="M0 0 C0.33 0 0.66 0 1 0 C1.33 9.24 1.66 18.48 2 28 C1.01 27.34 0.02 26.68 -1 26 C-1.2487793 23.38623047 -1.2487793 23.38623047 -1.07421875 20.1171875 C-1.01943359 18.95058594 -0.96464844 17.78398437 -0.90820312 16.58203125 C-0.83537109 15.35871094 -0.76253906 14.13539063 -0.6875 12.875 C-0.62626953 11.64394531 -0.56503906 10.41289062 -0.50195312 9.14453125 C-0.34831344 6.09537445 -0.18040849 3.04767126 0 0 Z " fill="#453A17" transform="translate(237,261)"/>
<path d="M0 0 C0.99 0 1.98 0 3 0 C5 7.625 5 7.625 5 11 C3.35 10.67 1.7 10.34 0 10 C-1.125 2.25 -1.125 2.25 0 0 Z " fill="#F5D44C" transform="translate(268,67)"/>
<path d="M0 0 C0.33 0 0.66 0 1 0 C0.87952582 5.02705917 0.75412763 8.09872551 -2.5625 12.0625 C-3.366875 12.701875 -4.17125 13.34125 -5 14 C-5.99 13.34 -6.98 12.68 -8 12 C-7.59007812 11.55269531 -7.18015625 11.10539063 -6.7578125 10.64453125 C-3.74359926 7.26255515 -1.33949455 4.420332 0 0 Z " fill="#2F2109" transform="translate(296,152)"/>
<path d="M0 0 C2.77132017 0.30859025 5.54199986 0.6217033 8.3125 0.9375 C9.49102539 1.06801758 9.49102539 1.06801758 10.69335938 1.20117188 C11.45068359 1.28818359 12.20800781 1.37519531 12.98828125 1.46484375 C14.03302612 1.58267212 14.03302612 1.58267212 15.09887695 1.70288086 C17 2 17 2 20 3 C20 3.66 20 4.32 20 5 C17.22683324 4.74516846 14.45765445 4.47190551 11.6875 4.1875 C10.90181641 4.11724609 10.11613281 4.04699219 9.30664062 3.97460938 C8.54931641 3.89404297 7.79199219 3.81347656 7.01171875 3.73046875 C6.31522217 3.66239014 5.61872559 3.59431152 4.90112305 3.52416992 C2.56056901 2.87884187 1.5616975 1.81806371 0 0 Z " fill="#443F28" transform="translate(304,254)"/>
<path d="M0 0 C0.33 0 0.66 0 1 0 C1 4.62 1 9.24 1 14 C1.66 14.33 2.32 14.66 3 15 C2.67 20.28 2.34 25.56 2 31 C1.67 31 1.34 31 1 31 C1 26.05 1 21.1 1 16 C0.34 16 -0.32 16 -1 16 C-0.67 10.72 -0.34 5.44 0 0 Z " fill="#A79138" transform="translate(278,245)"/>
<path d="M0 0 C0.33 0 0.66 0 1 0 C2.59303128 7.36776966 3.17898274 15.05147252 0 22 C-0.66 21.67 -1.32 21.34 -2 21 C-1.84660156 20.34644531 -1.69320313 19.69289063 -1.53515625 19.01953125 C-0.86620406 15.24507841 -0.64592703 11.51094004 -0.4375 7.6875 C-0.39431641 6.94693359 -0.35113281 6.20636719 -0.30664062 5.44335938 C-0.20129568 3.62908536 -0.10021684 1.8145645 0 0 Z " fill="#44340C" transform="translate(275,42)"/>
<path d="M0 0 C0.66 0 1.32 0 2 0 C2.02725341 1.7290774 2.04650987 3.45828176 2.0625 5.1875 C2.07410156 6.15042969 2.08570313 7.11335938 2.09765625 8.10546875 C2.00486622 10.85576513 1.62111685 13.32479591 1 16 C0.67 16 0.34 16 0 16 C-0.38854209 13.71059044 -0.7604628 11.41835426 -1.125 9.125 C-1.43824219 7.21074219 -1.43824219 7.21074219 -1.7578125 5.2578125 C-1.83773438 4.18273437 -1.91765625 3.10765625 -2 2 C-1.34 1.34 -0.68 0.68 0 0 Z " fill="#E2D798" transform="translate(301,264)"/>
<path d="M0 0 C0 0.99 0 1.98 0 3 C-0.99 3.495 -0.99 3.495 -2 4 C-2 4.66 -2 5.32 -2 6 C-5.63 5.67 -9.26 5.34 -13 5 C-13 4.34 -13 3.68 -13 3 C-8.71 2.01 -4.42 1.02 0 0 Z " fill="#D2CA7F" transform="translate(294,255)"/>
<path d="M0 0 C0.33 0 0.66 0 1 0 C1.45732667 5.71658336 0.52273754 8.48649253 -3 13 C-2.01 13.33 -1.02 13.66 0 14 C-0.33 14.66 -0.66 15.32 -1 16 C-2.32 15.67 -3.64 15.34 -5 15 C-5.33 13.35 -5.66 11.7 -6 10 C-5.01 9.67 -4.02 9.34 -3 9 C-2.67 8.01 -2.34 7.02 -2 6 C-1.67 6 -1.34 6 -1 6 C-0.67 4.02 -0.34 2.04 0 0 Z " fill="#292410" transform="translate(194,172)"/>
<path d="M0 0 C0.99 0.33 1.98 0.66 3 1 C2.01 1.495 2.01 1.495 1 2 C1 6.95 1 11.9 1 17 C0.67 17 0.34 17 0 17 C-1.19088986 11.61972975 -2.2919519 6.54708616 -2 1 C-1.34 0.67 -0.68 0.34 0 0 Z " fill="#221400" transform="translate(285,165)"/>
<path d="M0 0 C3.25450641 4.88175962 4.36509222 7.8883077 4.625 13.6875 C4.66367188 14.38939453 4.70234375 15.09128906 4.7421875 15.81445312 C4.8362334 17.54254655 4.9191968 19.27123675 5 21 C2.7419395 17.61290925 2.20005092 15.03357841 1.375 11.0625 C1.11460937 9.83660156 0.85421875 8.61070312 0.5859375 7.34765625 C0 4 0 4 0 0 Z " fill="#E1CA55" transform="translate(216,128)"/>
<path d="M0 0 C2.0625 0.4375 2.0625 0.4375 4 1 C3.34 1 2.68 1 2 1 C2.15597656 1.6290625 2.31195313 2.258125 2.47265625 2.90625 C3.78760993 8.68856288 4.08008392 13.16754686 3 19 C2.67 19 2.34 19 2 19 C1.47234717 16.02189167 0.95258304 13.04278398 0.4375 10.0625 C0.21030273 8.78729492 0.21030273 8.78729492 -0.02148438 7.48632812 C-0.16005859 6.67744141 -0.29863281 5.86855469 -0.44140625 5.03515625 C-0.57232666 4.2862915 -0.70324707 3.53742676 -0.83813477 2.76586914 C-0.89155029 2.18313232 -0.94496582 1.60039551 -1 1 C-0.67 0.67 -0.34 0.34 0 0 Z " fill="#DFC252" transform="translate(281,165)"/>
<path d="M0 0 C0.66 1.32 1.32 2.64 2 4 C1.01 4 0.02 4 -1 4 C-0.81566406 4.57234375 -0.63132812 5.1446875 -0.44140625 5.734375 C0.28163726 9.44557179 -0.97932313 12.39761105 -2 16 C-4.24369447 12.6344583 -4.2089196 11.86078219 -3.8125 8 C-3.73644531 7.13375 -3.66039062 6.2675 -3.58203125 5.375 C-2.92789656 2.70577924 -2.0964688 1.71786123 0 0 Z " fill="#1C160D" transform="translate(309,47)"/>
<path d="M0 0 C0.33 0 0.66 0 1 0 C1.01417969 0.68707031 1.02835937 1.37414062 1.04296875 2.08203125 C1.18718817 4.80660898 1.39137986 7.3383584 2 10 C4.37255115 12.21306951 4.37255115 12.21306951 7 13 C6.67 13.99 6.34 14.98 6 16 C0.125 11.25 0.125 11.25 -1 9 C-0.91348369 7.45386986 -0.75997364 5.91090613 -0.5625 4.375 C-0.46066406 3.55773437 -0.35882813 2.74046875 -0.25390625 1.8984375 C-0.17011719 1.27195312 -0.08632813 0.64546875 0 0 Z " fill="#332507" transform="translate(272,64)"/>
<path d="M0 0 C0.66 0.33 1.32 0.66 2 1 C2 8.26 2 15.52 2 23 C1.67 23 1.34 23 1 23 C0.93941406 21.91460937 0.87882813 20.82921875 0.81640625 19.7109375 C0.73193936 18.26561514 0.64729449 16.82030318 0.5625 15.375 C0.52318359 14.66214844 0.48386719 13.94929687 0.44335938 13.21484375 C0.24734947 9.92790844 -0.0361025 6.79093583 -0.59765625 3.5390625 C-0.73042969 2.70117188 -0.86320313 1.86328125 -1 1 C-0.67 0.67 -0.34 0.34 0 0 Z " fill="#D4B84B" transform="translate(237,233)"/>
<path d="M0 0 C0.99 0.66 1.98 1.32 3 2 C2.67 5.63 2.34 9.26 2 13 C1.34 13 0.68 13 0 13 C0 13.66 0 14.32 0 15 C-1.32 15.33 -2.64 15.66 -4 16 C-3.01 14.5459375 -3.01 14.5459375 -2 13.0625 C0.51316476 8.74410421 0.3978512 4.87367725 0 0 Z " fill="#D9D099" transform="translate(194,170)"/>
<path d="M0 0 C2.64 0 5.28 0 8 0 C6.7934375 0.9590625 6.7934375 0.9590625 5.5625 1.9375 C2.5068643 4.07124067 2.5068643 4.07124067 1.68359375 7.28515625 C1.60238281 8.20167969 1.52117187 9.11820313 1.4375 10.0625 C1.31181641 11.44115234 1.31181641 11.44115234 1.18359375 12.84765625 C1.12300781 13.55792969 1.06242187 14.26820312 1 15 C-1 12 -1 12 -0.72265625 9.58984375 C-0.50480469 8.71457031 -0.28695313 7.83929688 -0.0625 6.9375 C1.00353183 3.36923411 1.00353183 3.36923411 0 0 Z " fill="#C6BB87" transform="translate(305,45)"/>
<path d="M0 0 C0.33 0 0.66 0 1 0 C1 6.93 1 13.86 1 21 C1.66 21 2.32 21 3 21 C2.67 21.99 2.34 22.98 2 24 C1.34 23.67 0.68 23.34 0 23 C0 15.41 0 7.82 0 0 Z " fill="#1C1703" transform="translate(302,229)"/>
<path d="M0 0 C2.97 0.495 2.97 0.495 6 1 C5.34 3.31 4.68 5.62 4 8 C2.35 6.35 0.7 4.7 -1 3 C-0.67 2.01 -0.34 1.02 0 0 Z " fill="#FBE688" transform="translate(301,45)"/>
<path d="M0 0 C1.32 0.66 2.64 1.32 4 2 C2.50260417 3.23697917 1.00520833 4.47395833 -0.4921875 5.7109375 C-1.71051161 6.75250992 -2.86660097 7.86660097 -4 9 C-5 7 -5 7 -4.8125 5.0625 C-3.77312729 2.42409236 -2.3461165 1.51362355 0 0 Z " fill="#312308" transform="translate(247,27)"/>
<path d="M0 0 C1.9375 0.375 1.9375 0.375 4 1 C4.33 1.66 4.66 2.32 5 3 C7.02463255 3.65213292 7.02463255 3.65213292 9 4 C8.67 4.99 8.34 5.98 8 7 C5.6875 6.875 5.6875 6.875 3 6 C1.1875 2.9375 1.1875 2.9375 0 0 Z " fill="#221906" transform="translate(300,38)"/>
<path d="M0 0 C3.96 1.98 3.96 1.98 8 4 C8 5.98 8 7.96 8 10 C7.67 10 7.34 10 7 10 C7 8.35 7 6.7 7 5 C5.02 5 3.04 5 1 5 C0.67 3.35 0.34 1.7 0 0 Z " fill="#2E2003" transform="translate(226,162)"/>
<path d="M0 0 C2 2.66666667 4 5.33333333 6 8 C3.625 8.625 3.625 8.625 1 9 C0.34 8.34 -0.32 7.68 -1 7 C-0.625 3.375 -0.625 3.375 0 0 Z " fill="#DDD194" transform="translate(299,37)"/>
<path d="M0 0 C-1.95513161 0.696553 -3.91422476 1.38199565 -5.875 2.0625 C-6.96554687 2.44535156 -8.05609375 2.82820313 -9.1796875 3.22265625 C-12 4 -12 4 -14 3 C-9.66308049 -0.83650572 -5.49610097 -1.56354597 0 0 Z " fill="#2A2208" transform="translate(318,260)"/>
<path d="M0 0 C0.66 0.33 1.32 0.66 2 1 C-0.34591852 3.7710688 -2.14776201 4.52059284 -5.6875 5.1875 C-6.49574219 5.34605469 -7.30398438 5.50460937 -8.13671875 5.66796875 C-9.05904297 5.83232422 -9.05904297 5.83232422 -10 6 C-10 5.34 -10 4.68 -10 4 C-9.195625 3.87625 -8.39125 3.7525 -7.5625 3.625 C-6.716875 3.41875 -5.87125 3.2125 -5 3 C-4.67 2.34 -4.34 1.68 -4 1 C-4 1.66 -4 2.32 -4 3 C-3.34 3 -2.68 3 -2 3 C-2 2.34 -2 1.68 -2 1 C-1.34 0.67 -0.68 0.34 0 0 Z " fill="#211A0A" transform="translate(295,252)"/>
<path d="M0 0 C0.66 0 1.32 0 2 0 C2 2.64 2 5.28 2 8 C1.34 8 0.68 8 0 8 C-0.33 9.32 -0.66 10.64 -1 12 C-2.3609623 9.2780754 -1.70366248 7.8168043 -1.0625 4.875 C-0.86785156 3.96492187 -0.67320312 3.05484375 -0.47265625 2.1171875 C-0.31667969 1.41851562 -0.16070312 0.71984375 0 0 Z " fill="#352605" transform="translate(283,222)"/>
<path d="M0 0 C1.32 0.33 2.64 0.66 4 1 C4 2.65 4 4.3 4 6 C2.68 6 1.36 6 0 6 C0 4.02 0 2.04 0 0 Z " fill="#0C1506" transform="translate(282,264)"/>
<path d="M0 0 C2 3 2 3 1.5390625 5.91796875 C1.23742187 6.99691406 0.93578125 8.07585937 0.625 9.1875 C0.32851563 10.27417969 0.03203125 11.36085937 -0.2734375 12.48046875 C-0.51320313 13.31191406 -0.75296875 14.14335937 -1 15 C-3 12 -3 12 -3 9 C-2.34 9 -1.68 9 -1 9 C-0.67 6.03 -0.34 3.06 0 0 Z " fill="#DBC551" transform="translate(281,225)"/>
<path d="M0 0 C2.7710688 2.34591852 3.52059284 4.14776201 4.1875 7.6875 C4.34605469 8.49574219 4.50460938 9.30398437 4.66796875 10.13671875 C4.77753906 10.75160156 4.88710937 11.36648437 5 12 C4.01 11.67 3.02 11.34 2 11 C1.26953125 9.2578125 1.26953125 9.2578125 0.8125 7.125 C0.65394531 6.42632812 0.49539062 5.72765625 0.33203125 5.0078125 C0 3 0 3 0 0 Z " fill="#160F1B" transform="translate(217,148)"/>
<path d="M0 0 C5.53846154 0.61538462 5.53846154 0.61538462 7.875 2.5625 C8.431875 3.2740625 8.431875 3.2740625 9 4 C6 5 6 5 2.8125 3.5625 C1.884375 3.046875 0.95625 2.53125 0 2 C0 1.34 0 0.68 0 0 Z " fill="#312407" transform="translate(285,82)"/>
<path d="M0 0 C3 1 3 1 4.25 2.6875 C5.23749311 5.73227042 4.7002014 7.91911384 4 11 C3.67 11 3.34 11 3 11 C2.01 7.37 1.02 3.74 0 0 Z " fill="#DEC454" transform="translate(270,33)"/>
<path d="M0 0 C0.33 0 0.66 0 1 0 C1.14285714 8.57142857 1.14285714 8.57142857 0 12 C-0.66 12 -1.32 12 -2 12 C-1 3.42857143 -1 3.42857143 0 0 Z " fill="#F7D152" transform="translate(284,180)"/>
<path d="M0 0 C0.66 0 1.32 0 2 0 C2 2.31 2 4.62 2 7 C1.01 7 0.02 7 -1 7 C-1.04254356 5.00045254 -1.04080783 2.99958364 -1 1 C-0.67 0.67 -0.34 0.34 0 0 Z " fill="#F2D737" transform="translate(244,39)"/>
<path d="M0 0 C0.99 0 1.98 0 3 0 C4.125 3.75 4.125 3.75 3 6 C2.01 6 1.02 6 0 6 C-1 3 -1 3 0 0 Z " fill="#29251A" transform="translate(297,273)"/>
<path d="M0 0 C0.33 0 0.66 0 1 0 C1.33 2.31 1.66 4.62 2 7 C0.35 6.67 -1.3 6.34 -3 6 C-3 4.68 -3 3.36 -3 2 C-2.01 2 -1.02 2 0 2 C0 1.34 0 0.68 0 0 Z " fill="#F5E498" transform="translate(295,255)"/>
<path d="M0 0 C0.33 0 0.66 0 1 0 C3 7.625 3 7.625 3 11 C0.9375 9.4375 0.9375 9.4375 -1 7 C-0.75 3.25 -0.75 3.25 0 0 Z " fill="#E3C657" transform="translate(270,67)"/>
<path d="M0 0 C1.485 0.99 1.485 0.99 3 2 C3.29296875 4.6015625 3.29296875 4.6015625 3.1875 7.625 C3.16042969 8.62789062 3.13335937 9.63078125 3.10546875 10.6640625 C3.07066406 11.43492188 3.03585937 12.20578125 3 13 C2.67 13 2.34 13 2 13 C1.34 8.71 0.68 4.42 0 0 Z " fill="#211001" transform="translate(274,35)"/>
<path d="M0 0 C4.875 2.625 4.875 2.625 6 6 C4.68 6.33 3.36 6.66 2 7 C1.34 4.69 0.68 2.38 0 0 Z " fill="#EACD54" transform="translate(274,77)"/>
<path d="M0 0 C2.875 0.1875 2.875 0.1875 6 1 C7.375 3.5625 7.375 3.5625 8 6 C7.01 6.495 7.01 6.495 6 7 C5.38125 6.21625 4.7625 5.4325 4.125 4.625 C2.10141339 2.03162353 2.10141339 2.03162353 0 0 Z " fill="#352808" transform="translate(267,29)"/>
<path d="M0 0 C0.99 0.33 1.98 0.66 3 1 C2.01 1.495 2.01 1.495 1 2 C0.835 2.66 0.67 3.32 0.5 4 C0.335 4.66 0.17 5.32 0 6 C-0.99 6.495 -0.99 6.495 -2 7 C-2 5.02 -2 3.04 -2 1 C-1.34 0.67 -0.68 0.34 0 0 Z " fill="#2E1F05" transform="translate(285,165)"/>
<path d="M0 0 C0.33 0 0.66 0 1 0 C1 3.96 1 7.92 1 12 C-0.32 11.67 -1.64 11.34 -3 11 C-2.34 10.34 -1.68 9.68 -1 9 C-0.53993654 6.79749008 -0.53993654 6.79749008 -0.375 4.375 C-0.30023438 3.55773437 -0.22546875 2.74046875 -0.1484375 1.8984375 C-0.09945313 1.27195312 -0.05046875 0.64546875 0 0 Z " fill="#DDC04E" transform="translate(303,100)"/>
<path d="M0 0 C2.64 0 5.28 0 8 0 C6.68 1.65 5.36 3.3 4 5 C3.896875 4.360625 3.79375 3.72125 3.6875 3.0625 C3.460625 2.381875 3.23375 1.70125 3 1 C2.01 0.67 1.02 0.34 0 0 Z " fill="#C6BA8B" transform="translate(200,175)"/>
<path d="M0 0 C1.32 0 2.64 0 4 0 C4.33 1.32 4.66 2.64 5 4 C4.01 4.33 3.02 4.66 2 5 C2 4.01 2 3.02 2 2 C1.01 1.67 0.02 1.34 -1 1 C-0.67 0.67 -0.34 0.34 0 0 Z " fill="#F3D257" transform="translate(248,30)"/>
</svg>
