<?xml version="1.0" encoding="UTF-8"?>
<svg version="1.1" xmlns="http://www.w3.org/2000/svg" width="500" height="500">
<path d="M0 0 C165 0 330 0 500 0 C500 165 500 330 500 500 C335 500 170 500 0 500 C0 335 0 170 0 0 Z " fill="#111111" transform="translate(0,0)"/>
<path d="M0 0 C4.37137875 1.73017793 6.48622865 4.17133653 8.9375 8.125 C11.9626146 16.69615805 9.76540156 25.70379532 7 34 C6.39732622 38.09543415 6.39732622 38.09543415 7 42 C11.90544708 46.88234451 17.73299087 49.60749384 23.8984375 52.60546875 C29.01587053 55.19140565 32.36381154 57.72762308 35 63 C36.34197679 75.36378613 33.33484675 87.92773436 31 100 C30.83983398 100.83724609 30.67966797 101.67449219 30.51464844 102.53710938 C28.91689037 110.60392185 27.53894257 117.52863989 21 123 C18.125 123.9375 18.125 123.9375 16 124 C16.13277344 124.556875 16.26554687 125.11375 16.40234375 125.6875 C16.57894531 126.450625 16.75554687 127.21375 16.9375 128 C17.11152344 128.7425 17.28554688 129.485 17.46484375 130.25 C21.28138814 149.86202375 19.83312107 170.57764493 13.875 189.58984375 C12.91284873 193.33965651 12.80140788 196.57391353 12.875 200.4375 C12.89304687 201.67371094 12.91109375 202.90992188 12.9296875 204.18359375 C12.95289063 205.11300781 12.97609375 206.04242188 13 207 C15.08787886 206.62888858 17.17031273 206.22706321 19.25 205.8125 C20.41015625 205.59207031 21.5703125 205.37164062 22.765625 205.14453125 C26.70842695 203.74931269 27.92044389 202.60979552 30 199 C30.59145718 196.30775386 31.00057111 193.90263737 31.25 191.1875 C31.32734375 190.49462891 31.4046875 189.80175781 31.484375 189.08789062 C31.67133957 187.39352419 31.83777927 185.6969142 32 184 C32.33 184 32.66 184 33 184 C33.02578125 185.10859375 33.0515625 186.2171875 33.078125 187.359375 C33.13441656 188.82295547 33.19176367 190.28649562 33.25 191.75 C33.26417969 192.47960937 33.27835937 193.20921875 33.29296875 193.9609375 C33.4448246 197.30176626 33.74833594 199.61510203 35.59375 202.4375 C38.79478874 204.51609659 41.47138043 204.83015338 45.25 205.25 C46.51328125 205.39953125 47.7765625 205.5490625 49.078125 205.703125 C50.52445313 205.85007812 50.52445313 205.85007812 52 206 C52 206.33 52 206.66 52 207 C50.53626953 207.14695312 50.53626953 207.14695312 49.04296875 207.296875 C47.13451172 207.52117187 47.13451172 207.52117187 45.1875 207.75 C43.29064453 207.95882812 43.29064453 207.95882812 41.35546875 208.171875 C38.03986379 208.72975278 38.03986379 208.72975278 36.09375 210.59375 C34.58024202 213.92346755 34.43153027 217.15188488 34.3125 220.75 C34.27833984 221.44738281 34.24417969 222.14476562 34.20898438 222.86328125 C34.12691705 224.57497108 34.06177081 226.2874576 34 228 C31.49802096 224.24703144 31.32180796 221.10137076 30.7578125 216.69140625 C29.81032365 213.32635566 28.81271799 212.06982404 26 210 C22.74641317 209.09179635 22.74641317 209.09179635 19.25 208.75 C17.49429688 208.52570313 17.49429688 208.52570313 15.703125 208.296875 C14.36507812 208.14992188 14.36507812 208.14992188 13 208 C13.04640625 209.29808594 13.0928125 210.59617187 13.140625 211.93359375 C13.50523911 227.16935592 12.86244965 243.41265105 8 258 C7.77544509 260.93355514 7.81485116 263.87120473 7.8125 266.8125 C7.79413086 268.00456055 7.79413086 268.00456055 7.77539062 269.22070312 C7.77345703 269.99994141 7.77152344 270.77917969 7.76953125 271.58203125 C7.76542236 272.28561768 7.76131348 272.9892041 7.75708008 273.71411133 C7.99023524 276.68472461 7.99023524 276.68472461 10 282 C-0.23 282 -10.46 282 -21 282 C-20.01 278.04 -20.01 278.04 -19 274 C-17.77800043 262.93012158 -20.35607734 251.12875022 -22.54296875 240.3046875 C-24.61192905 229.23223662 -24.46574369 218.14210525 -24.51123047 206.91577148 C-24.57218962 196.46866519 -24.9174672 187.0692223 -28 177 C-30.03899887 169.081207 -30.31177444 161.46893243 -30.25 153.3125 C-30.24613281 152.08112305 -30.24226563 150.84974609 -30.23828125 149.58105469 C-30.15593023 140.90903456 -29.62366753 132.52425456 -28 124 C-29.36125 123.690625 -29.36125 123.690625 -30.75 123.375 C-34.89914905 121.61959079 -35.90154372 119.94895493 -38 116 C-38.97720219 113.39781854 -39.8185764 110.91383666 -40.5625 108.25 C-40.77156982 107.51265625 -40.98063965 106.7753125 -41.19604492 106.015625 C-44.27519205 94.75039458 -46.22551435 83.44309941 -46.375 71.75 C-46.39590698 70.71359375 -46.39590698 70.71359375 -46.41723633 69.65625 C-46.37335669 65.02438398 -45.53463502 61.87146784 -43 58 C-38.32710011 53.4213661 -33.3730018 51.1448472 -27.390625 48.68359375 C-23.10012999 46.81627305 -20.42366233 45.04355909 -18 41 C-17.6559661 38.79087588 -17.6559661 38.79087588 -18.125 36.625 C-18.23070312 35.91601562 -18.33640625 35.20703125 -18.4453125 34.4765625 C-19.00091391 31.83906357 -19.00091391 31.83906357 -20.03125 28.68359375 C-21.05046923 24.80809484 -21.33395729 21.43916385 -21.375 17.4375 C-21.40335937 16.17808594 -21.43171875 14.91867188 -21.4609375 13.62109375 C-20.80121109 8.43832779 -18.28619551 5.52735717 -15 1.625 C-10.14825598 -1.00302801 -5.38295417 -0.81279043 0 0 Z " fill="#F6D23F" transform="translate(418,51)"/>
<path d="M0 0 C5.19673588 1.27267001 7.35284981 5.10892748 10.15234375 9.43359375 C16.28225244 20.48712388 18.68645099 33.82345832 21.18725586 46.06469727 C22.83166353 54.05009963 24.9078092 61.89034375 27.0625 69.75 C27.07708252 68.84685059 27.09166504 67.94370117 27.10668945 67.01318359 C27.40072784 50.56573605 27.87209048 34.18896552 29.5 17.8125 C29.62221924 16.5529248 29.74443848 15.29334961 29.87036133 13.99560547 C30.88024717 4.52669534 30.88024717 4.52669534 33.0625 0.75 C33.0625 2.07 33.0625 3.39 33.0625 4.75 C35.5375 5.245 35.5375 5.245 38.0625 5.75 C38.0625 6.41 38.0625 7.07 38.0625 7.75 C38.7225 7.75 39.3825 7.75 40.0625 7.75 C40.0625 6.76 40.0625 5.77 40.0625 4.75 C40.7225 4.75 41.3825 4.75 42.0625 4.75 C44.8315223 11.02645055 45.22496347 17.09233696 45.265625 23.8828125 C45.27259399 24.66458862 45.27956299 25.44636475 45.28674316 26.25183105 C45.30417638 28.79294186 45.3104735 31.3338317 45.3125 33.875 C45.31350708 34.74259949 45.31451416 35.61019897 45.31555176 36.50408936 C45.30666321 47.85345731 45.0015194 59.07931573 43.8125 70.375 C43.70325195 71.4489502 43.59400391 72.52290039 43.48144531 73.62939453 C42.49872126 81.80973399 40.77277875 90.3294425 37.0625 97.75 C34.45094699 98.6444431 31.75523823 99.15161373 29.0625 99.75 C26.22710254 94.39157938 24.17008622 89.32860156 22.5625 83.5 C19.5656446 73.0680397 16.13614392 62.78900848 12.6875 52.5 C12.41075439 51.67367065 12.13400879 50.84734131 11.84887695 49.99597168 C10.25743914 45.24595679 8.6617734 40.49738218 7.0625 35.75 C6.57961706 39.35367863 6.10189976 42.9580251 5.625 46.5625 C5.49029297 47.56732422 5.35558594 48.57214844 5.21679688 49.60742188 C4.42799031 55.59080826 3.77895362 61.55840041 3.32397461 67.5769043 C3.0625 69.75 3.0625 69.75 2.0625 71.75 C1.80287691 74.58854574 1.59628724 77.40584025 1.4375 80.25 C1.3859375 81.03503906 1.334375 81.82007813 1.28125 82.62890625 C0.90114269 86.81541135 0.90114269 86.81541135 2.0625 90.75 C2.10272391 93.0829866 2.10570247 95.41706666 2.0625 97.75 C0.5775 98.245 0.5775 98.245 -0.9375 98.75 C-0.9375 99.74 -0.9375 100.73 -0.9375 101.75 C-1.5975 101.75 -2.2575 101.75 -2.9375 101.75 C-3.4325 102.245 -3.4325 102.245 -3.9375 102.75 C-6.49063887 101.77612229 -7.69160129 101.2351515 -8.94921875 98.75390625 C-9.17222656 97.94824219 -9.39523438 97.14257812 -9.625 96.3125 C-9.85574219 95.53003906 -10.08648437 94.74757813 -10.32421875 93.94140625 C-12.41615553 83.05534034 -12.12371372 71.94287883 -12.12280273 60.90258789 C-12.1249667 57.98243114 -12.1431077 55.06266723 -12.16210938 52.14257812 C-12.19209907 42.29942095 -11.91403333 32.54664198 -11.05078125 22.73828125 C-10.97304977 21.83732224 -10.8953183 20.93636322 -10.81523132 20.00810242 C-10.20059163 13.70997527 -9.62951655 7.95902161 -5.6875 2.8125 C-2.9375 0.75 -2.9375 0.75 0 0 Z " fill="#F5D13F" transform="translate(156.9375,69.25)"/>
<path d="M0 0 C0.78503906 -0.00257812 1.57007812 -0.00515625 2.37890625 -0.0078125 C4.4375 0.125 4.4375 0.125 6.4375 1.125 C7.0625 3.6875 7.0625 3.6875 7.4375 6.125 C5.1275 5.795 2.8175 5.465 0.4375 5.125 C0.7675 6.115 1.0975 7.105 1.4375 8.125 C2.7575 8.125 4.0775 8.125 5.4375 8.125 C5.4375 8.785 5.4375 9.445 5.4375 10.125 C5.994375 10.33125 6.55125 10.5375 7.125 10.75 C14.43211796 15.09477284 19.44432114 25.07247927 21.8125 33 C24.79226051 48.36439011 20.61377796 64.50771846 13.4375 78.125 C12.7775 78.125 12.1175 78.125 11.4375 78.125 C11.19644531 78.86363281 10.95539063 79.60226563 10.70703125 80.36328125 C9.26542691 83.49932514 7.71885944 85.05867592 5.125 87.3125 C4.36574219 87.98667969 3.60648438 88.66085938 2.82421875 89.35546875 C-1.31749089 92.42616346 -5.29471654 93.72580626 -10.5078125 93.55859375 C-15.17505674 92.57368099 -18.05932861 89.24127003 -20.73510742 85.47412109 C-24.66330378 78.02239909 -24.20033202 69.97941641 -24.13891602 61.7722168 C-24.12519505 59.22372838 -24.15900479 56.67903076 -24.19726562 54.13085938 C-24.26784678 39.41611391 -21.58308249 25.27021157 -14.4375 12.25 C-14.10363281 11.60160156 -13.76976563 10.95320313 -13.42578125 10.28515625 C-9.8902191 3.53292579 -7.98225604 -0.02630068 0 0 Z " fill="#F4D03F" transform="translate(113.5625,76.875)"/>
<path d="M0 0 C0.78503906 -0.00257813 1.57007812 -0.00515625 2.37890625 -0.0078125 C4.4375 0.125 4.4375 0.125 6.4375 1.125 C7.0625 3.6875 7.0625 3.6875 7.4375 6.125 C5.1275 5.795 2.8175 5.465 0.4375 5.125 C0.7675 6.115 1.0975 7.105 1.4375 8.125 C2.7575 8.125 4.0775 8.125 5.4375 8.125 C5.4375 8.785 5.4375 9.445 5.4375 10.125 C6.035625 10.393125 6.63375 10.66125 7.25 10.9375 C11.07986537 13.01656977 12.9144306 15.70026067 14.9375 19.5 C16.2645693 21.97480491 17.57921744 24.34020056 19.125 26.6875 C25.51545031 38.55547916 22.58264418 52.82687447 19.06689453 65.14501953 C17.6279698 69.67166018 15.64826307 73.92998647 13.4375 78.125 C12.7775 78.125 12.1175 78.125 11.4375 78.125 C11.19644531 78.86363281 10.95539063 79.60226562 10.70703125 80.36328125 C9.26542691 83.49932514 7.71885944 85.05867592 5.125 87.3125 C4.36574219 87.98667969 3.60648438 88.66085937 2.82421875 89.35546875 C-1.31749089 92.42616346 -5.29471654 93.72580626 -10.5078125 93.55859375 C-15.17505674 92.57368099 -18.05932861 89.24127003 -20.73510742 85.47412109 C-24.66330378 78.02239909 -24.20033202 69.97941641 -24.13891602 61.7722168 C-24.12519505 59.22372838 -24.15900479 56.67903076 -24.19726562 54.13085938 C-24.26784678 39.41611391 -21.58308249 25.27021157 -14.4375 12.25 C-14.10363281 11.60160156 -13.76976563 10.95320313 -13.42578125 10.28515625 C-9.8902191 3.53292579 -7.98225604 -0.02630068 0 0 Z " fill="#F4D03F" transform="translate(79.5625,269.875)"/>
<path d="M0 0 C8.83635511 11.99219622 5.10052411 33.87077764 5 48 C8.63 48 12.26 48 16 48 C16.66 50.31 17.32 52.62 18 55 C17.34 55 16.68 55 16 55 C16 55.66 16 56.32 16 57 C11.05 57.495 11.05 57.495 6 58 C6.01571045 59.66554932 6.01571045 59.66554932 6.03173828 61.36474609 C6.06787949 65.47587879 6.09087896 69.58699739 6.10986328 73.69824219 C6.11993431 75.47919067 6.13359185 77.26012257 6.15087891 79.04101562 C6.17507913 81.59769783 6.18647184 84.15416185 6.1953125 86.7109375 C6.20563507 87.50994476 6.21595764 88.30895203 6.22659302 89.13217163 C6.22699226 91.0895722 6.12241069 93.04643077 6 95 C5.34 95.66 4.68 96.32 4 97 C3.42979389 99.02739952 3.05183592 101.05632289 2.66015625 103.125 C2 105 2 105 -1 107 C-2.9375 107 -2.9375 107 -5 106 C-12.931956 97.36816553 -11.2641735 83.1527992 -11.125 72.25 C-11.11493717 70.85938154 -11.10581723 69.46875592 -11.09765625 68.078125 C-11.07432595 64.71856181 -11.0415923 61.35937825 -11 58 C-11.61488281 58.2165625 -12.22976562 58.433125 -12.86328125 58.65625 C-13.67152344 58.9346875 -14.47976562 59.213125 -15.3125 59.5 C-16.11300781 59.7784375 -16.91351563 60.056875 -17.73828125 60.34375 C-20 61 -20 61 -23 61 C-22.95359375 62.23234375 -22.9071875 63.4646875 -22.859375 64.734375 C-22.56679668 75.85910291 -22.67549058 85.7534864 -29.25 95.25 C-30.11625 96.11625 -30.11625 96.11625 -31 97 C-32.32 96.67 -33.64 96.34 -35 96 C-36.50724404 89.32233655 -35.33496764 83.41684156 -34.125 76.75 C-33.93808594 75.66203125 -33.75117188 74.5740625 -33.55859375 73.453125 C-32.17520292 65.52560877 -32.17520292 65.52560877 -31 62 C-33.31 62 -35.62 62 -38 62 C-36.92174466 59.15732684 -36.35563882 58.17325994 -33.5625 56.8125 C-27.62339139 52.61166708 -27.26464915 43.03153091 -25.61645508 36.29711914 C-18.30304398 6.8897599 -18.30304398 6.8897599 -10 0 C-6.415869 -1.13183084 -3.54782721 -1.30709424 0 0 Z " fill="#F4D13F" transform="translate(234,267)"/>
<path d="M0 0 C4.90950421 -0.59872003 7.76308486 0.4335968 11.5859375 3.35546875 C14.12528327 6.3086858 13.93561916 9.20153054 14 13 C14.88751953 13.12955078 14.88751953 13.12955078 15.79296875 13.26171875 C19.75403411 13.96605174 22.63089541 14.76648485 26.0625 16.9375 C28.97014717 21.53345844 28.72510509 25.70522224 28 31 C27.22116339 33.57104586 26.27188311 35.61521917 25 38 C24.01 37.67 23.02 37.34 22 37 C21.64808594 37.70125 21.29617188 38.4025 20.93359375 39.125 C17.6098295 45.51218144 14.01007482 50.82687541 9 56 C12.26460973 54.19587357 13.88929795 53.16605307 16 50 C16.66 50 17.32 50 18 50 C16.44165785 53.82502165 13.92784104 56.14783821 11 59 C11.44653931 59.78648926 11.44653931 59.78648926 11.90209961 60.58886719 C13.25216161 62.97315946 14.59488766 65.36150547 15.9375 67.75 C16.64036133 68.9875 16.64036133 68.9875 17.35742188 70.25 C17.80537109 71.04921875 18.25332031 71.8484375 18.71484375 72.671875 C19.12855225 73.4050293 19.54226074 74.13818359 19.96850586 74.89355469 C21.51195524 78.04547925 22 80.49024756 22 84 C23.01144967 86.06419793 23.01144967 86.06419793 24.375 88.125 C24.81585938 88.82882812 25.25671875 89.53265625 25.7109375 90.2578125 C26.8985955 92.13805102 26.8985955 92.13805102 29 93 C29.4140625 95.50390625 29.4140625 95.50390625 29.625 98.5625 C29.69976562 99.57441406 29.77453125 100.58632813 29.8515625 101.62890625 C29.90054688 102.41136719 29.94953125 103.19382812 30 104 C28.02 104.495 28.02 104.495 26 105 C20.36549465 98.9872524 15.29106063 92.85483995 10.62890625 86.0546875 C10.09136719 85.37664062 9.55382812 84.69859375 9 84 C8.34 84 7.68 84 7 84 C6.94839722 84.91495239 6.94839722 84.91495239 6.89575195 85.84838867 C6.72527782 88.63015656 6.51925482 91.40820286 6.3125 94.1875 C6.25900391 95.14720703 6.20550781 96.10691406 6.15039062 97.09570312 C5.77928076 101.75877931 5.55394592 104.29423855 2.60546875 108.05078125 C-2.72469461 112.03841471 -2.72469461 112.03841471 -5.6875 111.625 C-6.450625 111.41875 -7.21375 111.2125 -8 111 C-9.87265046 103.8659828 -10.29325046 97.29915889 -10.265625 89.94140625 C-10.26753845 88.79824448 -10.2694519 87.6550827 -10.27142334 86.47727966 C-10.2727791 84.06435933 -10.26912537 81.65143155 -10.26074219 79.23852539 C-10.25012363 75.60480692 -10.26061238 71.97159297 -10.2734375 68.33789062 C-10.2830389 51.96891261 -9.64363411 36.01361882 -6 20 C-5.83371094 19.15695312 -5.66742188 18.31390625 -5.49609375 17.4453125 C-4.27098072 11.4065664 -2.21177709 5.73051336 0 0 Z " fill="#F4D13F" transform="translate(263,257)"/>
<path d="M0 0 C2.5 2.0625 2.5 2.0625 3.5 3.0625 C3.90256562 7.81277435 3.96650379 10.16281412 1.75 14.4375 C-0.30941475 16.84015055 -1.5640405 18.01394304 -4.5 19.0625 C-6.15 17.4125 -7.8 15.7625 -9.5 14.0625 C-19.93593812 35.789781 -23.94580786 55.48065312 -18.5 79.0625 C-17.66127598 81.4380664 -17.66127598 81.4380664 -16.5 83.0625 C-14.44999129 83.86778889 -14.44999129 83.86778889 -12.5 84.0625 C-12.24992187 83.42828125 -11.99984375 82.7940625 -11.7421875 82.140625 C-10.07689967 78.0140627 -8.35150757 73.91375775 -6.625 69.8125 C-6.28597656 69.00425781 -5.94695312 68.19601562 -5.59765625 67.36328125 C-4.57228765 64.9265688 -3.53772805 62.49397214 -2.5 60.0625 C-2.15549805 59.24587891 -1.81099609 58.42925781 -1.45605469 57.58789062 C-0.94800293 56.40743164 -0.94800293 56.40743164 -0.4296875 55.203125 C-0.13046387 54.50219727 0.16875977 53.80126953 0.47705078 53.07910156 C1.60105847 50.86327733 2.95966004 49.0068725 4.5 47.0625 C4.18892331 50.85428481 3.87587338 54.64590436 3.5625 58.4375 C3.47548828 59.49839844 3.38847656 60.55929687 3.29882812 61.65234375 C2.88425318 66.65795233 2.46058591 71.66281817 1.99609375 76.6640625 C1.88865845 77.83316162 1.88865845 77.83316162 1.77905273 79.02587891 C1.5 81.0625 1.5 81.0625 0.5 84.0625 C-0.16 84.0625 -0.82 84.0625 -1.5 84.0625 C-1.5825 84.660625 -1.665 85.25875 -1.75 85.875 C-2.77471993 88.86376647 -3.74710154 89.47958338 -6.5 91.0625 C-12.22664779 93.51999846 -17.27987955 94.77628431 -23.5 94.0625 C-29.60594171 91.06939132 -33.19018244 86.42405974 -35.6171875 80.1953125 C-39.83905355 64.29813662 -37.26836411 44.61607918 -32.5 29.0625 C-32.31276367 28.40652832 -32.12552734 27.75055664 -31.93261719 27.07470703 C-25.43394301 4.35179534 -25.43394301 4.35179534 -17.5 -0.9375 C-11.852964 -2.59839294 -5.07284401 -3.37374686 0 0 Z " fill="#F2CF3E" transform="translate(186.5,268.9375)"/>
<path d="M0 0 C1.5895512 1.5895512 1.16067493 3.21411015 1.171875 5.4140625 C1.11375252 10.87951282 0.2857811 16.02124091 -0.75 21.375 C-5.15721434 45.58294375 -9.21317989 70.31881776 -9 95 C-7.99839844 94.36191406 -6.99679688 93.72382813 -5.96484375 93.06640625 C-4.62278783 92.23114067 -3.28031768 91.39654039 -1.9375 90.5625 C-1.28072266 90.14162109 -0.62394531 89.72074219 0.05273438 89.28710938 C4.44887641 86.58012536 7.84019467 85.36903679 13 85 C11.61130416 88.30003823 10.15555933 89.91378765 7.2265625 91.9453125 C6.4840625 92.46480469 5.7415625 92.98429687 4.9765625 93.51953125 C4.20054687 94.04933594 3.42453125 94.57914062 2.625 95.125 C1.47257812 95.93130859 1.47257812 95.93130859 0.296875 96.75390625 C-8.70622272 103 -8.70622272 103 -13 103 C-13 103.66 -13 104.32 -13 105 C-16.04261217 105.72916632 -18.86716772 106.20990501 -22 106 C-25.85538711 102.62653628 -27.34226725 99.9761801 -28 95 C-29.06850881 73.29804932 -26.01858384 53.04516907 -21 32 C-20.82178711 31.24460937 -20.64357422 30.48921875 -20.45996094 29.7109375 C-14.92190714 6.56165589 -14.92190714 6.56165589 -7 1 C-4.51588385 -0.24205807 -2.74800896 -0.14092354 0 0 Z " fill="#F4D03F" transform="translate(238,71)"/>
<path d="M0 0 C1.75 1.625 1.75 1.625 3 4 C2.89575659 6.55396353 2.58445432 8.54253065 2 11 C1.76990234 12.15628906 1.76990234 12.15628906 1.53515625 13.3359375 C-0.35952802 21.58338668 -4.15045207 28.72694444 -8.05273438 36.1640625 C-9.30935932 38.59958301 -10.46035383 41.08195492 -11.625 43.5625 C-13.79380193 47.84932924 -16.14778796 52.01670797 -20 55 C-23.375 55.4375 -23.375 55.4375 -26 55 C-24.02253397 55.73080266 -22.01927511 56.39421747 -20 57 C-19.01 56.505 -19.01 56.505 -18 56 C-17.9505269 61.33852794 -17.91424575 66.67692214 -17.89013672 72.015625 C-17.88008509 73.83140386 -17.86644172 75.64716656 -17.84912109 77.46289062 C-17.82483594 80.07425935 -17.81350852 82.68541387 -17.8046875 85.296875 C-17.79436493 86.10743347 -17.78404236 86.91799194 -17.77340698 87.75311279 C-17.77195329 95.0713819 -17.77195329 95.0713819 -20 98 C-22.3828125 98.609375 -22.3828125 98.609375 -25.125 98.75 C-26.03507812 98.80671875 -26.94515625 98.8634375 -27.8828125 98.921875 C-28.58148438 98.94765625 -29.28015625 98.9734375 -30 99 C-31.73654248 93.79888086 -32.2283967 89.24988391 -32.0546875 83.7578125 C-32.02939345 82.18099838 -32.00467164 80.604175 -31.98046875 79.02734375 C-31.9309687 76.57635601 -31.87502374 74.12586919 -31.80810547 71.67529297 C-31.4715382 58.84444503 -31.4715382 58.84444503 -36 47 C-39.10315554 38.06765298 -40.93864635 28.84927542 -42.69335938 19.5769043 C-42.84998047 18.75230713 -43.00660156 17.92770996 -43.16796875 17.078125 C-43.30485107 16.33981445 -43.4417334 15.60150391 -43.58276367 14.84082031 C-43.94169386 12.91791504 -43.94169386 12.91791504 -45 11 C-45.09472912 9.48154798 -45.1298841 7.95889616 -45.125 6.4375 C-45.12886719 5.22900391 -45.12886719 5.22900391 -45.1328125 3.99609375 C-45 2 -45 2 -44 1 C-40.56539688 0.61837743 -38.71881948 0.43315949 -35.94921875 2.6171875 C-33.62485424 5.45859502 -32.74280494 7.94535052 -31.625 11.4375 C-29.53998085 17.65358512 -27.04903822 23.37448703 -24.13671875 29.2578125 C-23 32 -23 32 -23 36 C-22.34 36 -21.68 36 -21 36 C-21 35.01 -21 34.02 -21 33 C-20.34 33 -19.68 33 -19 33 C-19.23847656 32.18015625 -19.47695313 31.3603125 -19.72265625 30.515625 C-20.09715472 25.76846135 -18.55539821 22.91592953 -16.4375 18.75 C-16.07052002 18.00363281 -15.70354004 17.25726563 -15.32543945 16.48828125 C-9.05163195 3.88880532 -9.05163195 3.88880532 -6 0 C-3 -1 -3 -1 0 0 Z " fill="#F3D03E" transform="translate(298,77)"/>
<path d="M0 0 C10.15254609 -0.63015803 10.15254609 -0.63015803 13.4375 1.8125 C13.953125 2.534375 14.46875 3.25625 15 4 C16.97013071 5.56451556 18.75179768 6.87589884 21 8 C20.67 9.32 20.34 10.64 20 12 C18.12054688 11.91298828 18.12054688 11.91298828 16.203125 11.82421875 C14.5521206 11.77731522 12.90107589 11.73181569 11.25 11.6875 C10.425 11.64560547 9.6 11.60371094 8.75 11.56054688 C3.65180842 11.43810426 3.65180842 11.43810426 -0.5390625 14.171875 C-3.09640925 19.12246068 -2.84690148 23.57331588 -2 29 C0.62583643 36.59959231 5.03675782 42.58308146 10.16796875 48.67578125 C17.53803858 58.02586984 17.98755804 68.57767289 17 80 C15.72105514 85.54651216 13.6935899 90.51765911 9 94 C7.515 94.495 7.515 94.495 6 95 C4.97980427 95.9793879 3.97850195 96.97895449 3 98 C0.75504292 99.12247854 -0.88443155 99.26831921 -3.375 99.5 C-5.7538125 99.72276505 -7.81640985 99.93845948 -10.0859375 100.69921875 C-12 101 -12 101 -13.703125 99.92578125 C-14.46882813 99.12720703 -14.46882813 99.12720703 -15.25 98.3125 C-15.77078125 97.79300781 -16.2915625 97.27351563 -16.828125 96.73828125 C-18 95 -18 95 -18 91 C-16.80375 90.896875 -15.6075 90.79375 -14.375 90.6875 C-11.23061143 89.92370349 -10.1861322 89.24561358 -8.203125 86.62890625 C-6.65254328 83.80024603 -5.28314327 80.95882708 -4 78 C-3.54625 76.989375 -3.0925 75.97875 -2.625 74.9375 C-0.70215243 65.9001164 -2.16150835 60.63040651 -7.078125 52.76171875 C-8.94423633 49.9907799 -8.94423633 49.9907799 -11.0625 47.546875 C-16.97976643 39.76853284 -18.87070027 29.7197316 -18.484375 20.13671875 C-17.52446926 13.92055495 -14.48939878 10.59331032 -10.3125 6.125 C-6.02277746 3.37310252 -1.99729432 2.66169707 3 2 C2.01 2.495 2.01 2.495 1 3 C1 3.66 1 4.32 1 5 C3.47266765 4.65555119 3.47266765 4.65555119 6 4 C6.33 3.34 6.66 2.68 7 2 C4.69 1.67 2.38 1.34 0 1 C0 0.67 0 0.34 0 0 Z " fill="#F4D13F" transform="translate(126,269)"/>
<path d="M0 0 C10.10132996 -0.6269791 10.10132996 -0.6269791 13.6875 1.875 C15 4 15 4 15 6 C15.804375 6.28875 16.60875 6.5775 17.4375 6.875 C20 8 20 8 21 10 C20.67 10.66 20.34 11.32 20 12 C13.73 12 7.46 12 1 12 C-2.96047846 18.9308373 -4.2974534 22.06156798 -2.375 29.37890625 C-0.28421814 35.34323486 2.91948768 39.68330163 6.96875 44.48046875 C15.74520493 55.36664843 18.1844917 64.75567039 16.72265625 78.6328125 C15.73867472 84.01191152 13.60661124 88.84542297 10 93 C8.67942924 93.69160327 7.3455687 94.35838712 6 95 C5.52304687 95.52464844 5.04609375 96.04929687 4.5546875 96.58984375 C2.43916267 98.50869919 0.94354284 98.42971151 -1.875 98.5625 C-5.62270583 98.8254969 -8.5923744 99.2961872 -12 101 C-13.01191545 100.09650406 -14.00918926 99.17659153 -15 98.25 C-15.8353125 97.48429687 -15.8353125 97.48429687 -16.6875 96.703125 C-18 95 -18 95 -18 91 C-16.453125 90.7834375 -16.453125 90.7834375 -14.875 90.5625 C-10.33937372 89.26791841 -8.6307467 86.34683607 -6.2890625 82.43359375 C-2.21904653 74.74989694 -0.76248367 68.718031 -3 60.1875 C-4.45319865 56.6306233 -6.5409045 53.8512281 -8.875 50.8125 C-15.35043458 42.19051253 -19.56590616 31.93530429 -19 21 C-17.88625869 14.81580483 -15.47301291 10.36898936 -11 6 C-6.39548656 3.03264689 -2.38232045 2.26043486 3 2 C5.5 2.9375 5.5 2.9375 7 4 C7 3.34 7 2.68 7 2 C4.69 1.67 2.38 1.34 0 1 C0 0.67 0 0.34 0 0 Z " fill="#F4D13F" transform="translate(317,269)"/>
<path d="M0 0 C2.7341521 1.10844004 4.55523115 2.16268213 5.96484375 4.81640625 C7.46157615 8.97896053 8.13009188 12.84165382 8.375 17.25 C9.21880237 28.46944627 14.41687361 37.26007904 21.01171875 46.02734375 C24.52095329 51.27395963 26.01636339 56.72369409 25 63 C22.87230354 69.85794008 20.01363649 77.61411474 14 82 C10.625 82.4375 10.625 82.4375 8 82 C8.20625 82.763125 8.4125 83.52625 8.625 84.3125 C9 87 9 87 7 90 C5.1875 89.8125 5.1875 89.8125 3 89 C1.25 86.4375 1.25 86.4375 0 84 C0.33 83.67 0.66 83.34 1 83 C0.91015699 81.14227838 0.75388139 79.28752015 0.5625 77.4375 C0.46066406 76.42558594 0.35882813 75.41367187 0.25390625 74.37109375 C0.17011719 73.58863281 0.08632813 72.80617188 0 72 C-0.66 72 -1.32 72 -2 72 C-3.03572896 70.25877451 -4.0531252 68.50663405 -5.0625 66.75 C-5.63097656 65.77546875 -6.19945312 64.8009375 -6.78515625 63.796875 C-8 61 -8 61 -7.44921875 59.03515625 C-6.71943778 56.76084106 -6.71943778 56.76084106 -8.546875 54.01171875 C-9.27390625 52.91472656 -10.0009375 51.81773437 -10.75 50.6875 C-13.69883432 46.20590827 -16.01447753 41.95752287 -18 37 C-17.50628906 36.59007812 -17.01257813 36.18015625 -16.50390625 35.7578125 C-15.86324219 35.21898437 -15.22257812 34.68015625 -14.5625 34.125 C-13.92441406 33.59132813 -13.28632813 33.05765625 -12.62890625 32.5078125 C-10.89194996 31.0777243 -10.89194996 31.0777243 -10 29 C-10.48210937 29.433125 -10.96421875 29.86625 -11.4609375 30.3125 C-12.09257812 30.869375 -12.72421875 31.42625 -13.375 32 C-14.00148438 32.556875 -14.62796875 33.11375 -15.2734375 33.6875 C-17 35 -17 35 -19 35 C-17.70647285 32.17385775 -16.30607134 30.07640869 -14.1875 27.8125 C-10.73753265 23.91327401 -8.36540145 19.61567274 -6 15 C-5.67 15.66 -5.34 16.32 -5 17 C-4.34 17 -3.68 17 -3 17 C-1.1582605 11.35199888 -0.45224761 5.91492272 0 0 Z " fill="#131311" transform="translate(291,278)"/>
<path d="M0 0 C3.16115776 1.36983503 3.9927092 1.9890638 6 5 C6.54478288 14.73345414 2.52664275 24.05332061 -2.77734375 31.96875 C-4.61131319 35.0156002 -5.7633745 38.27256449 -7.01953125 41.58984375 C-8.38153563 44.93787843 -10.12260192 47.91570315 -12 51 C-12.66 51 -13.32 51 -14 51 C-14.99 53.475 -14.99 53.475 -16 56 C-15.67 56 -15.34 56 -15 56 C-14.67 56 -14.34 56 -14 56 C-13.9505269 61.33852794 -13.91424575 66.67692214 -13.89013672 72.015625 C-13.88008509 73.83140386 -13.86644172 75.64716656 -13.84912109 77.46289062 C-13.82483594 80.07425935 -13.81350852 82.68541387 -13.8046875 85.296875 C-13.79436493 86.10743347 -13.78404236 86.91799194 -13.77340698 87.75311279 C-13.77202391 94.71585532 -13.77202391 94.71585532 -16 98 C-16.804375 97.979375 -17.60875 97.95875 -18.4375 97.9375 C-20.93354885 97.70366379 -20.93354885 97.70366379 -22 99 C-23.66617115 99.04063832 -25.33388095 99.042721 -27 99 C-27.99 96.03 -27.99 96.03 -29 93 C-28.21625 92.896875 -27.4325 92.79375 -26.625 92.6875 C-23.66954819 92.22404978 -23.66954819 92.22404978 -22 89 C-21.82806927 86.17016801 -21.76791563 83.44118127 -21.8046875 80.61328125 C-21.8075174 79.79627243 -21.81034729 78.97926361 -21.81326294 78.13749695 C-21.82445459 75.52901541 -21.8495571 72.9208777 -21.875 70.3125 C-21.88503112 68.54362475 -21.89415674 66.77474412 -21.90234375 65.00585938 C-21.92439058 60.67044051 -21.9589133 56.33527855 -22 52 C-23.485 52.495 -23.485 52.495 -25 53 C-27.6875 52.0625 -27.6875 52.0625 -30 51 C-29.34 50.34 -28.68 49.68 -28 49 C-26.824375 49.08507812 -26.824375 49.08507812 -25.625 49.171875 C-22.83994933 49.27281346 -22.83994933 49.27281346 -20.9375 47.015625 C-16.85986106 41.19512425 -13.74648396 35.59725927 -11.21484375 28.95703125 C-10.0055842 26.0135924 -8.56101731 23.42035332 -6.9375 20.6875 C-3.24373609 14.17807626 -1.66016486 7.23636566 0 0 Z " fill="#6B5D23" transform="translate(301,82)"/>
<path d="M0 0 C3 1 3 1 4.1328125 2.75 C8.37862897 12.37830822 8.25816627 21.58729391 8 32 C7.98324219 32.95777344 7.96648437 33.91554688 7.94921875 34.90234375 C7.64795311 41.17727672 6.36662717 46.93065035 4.625 52.9375 C4.41593018 53.65969727 4.20686035 54.38189453 3.99145508 55.12597656 C2.77840041 59.08587574 1.47475706 62.61871428 -1 66 C-1.66 66 -2.32 66 -3 66 C-11.21320621 44.53106097 -7.15668106 23.64149831 -1 2 C-0.67 1.34 -0.34 0.68 0 0 Z " fill="#6E5F24" transform="translate(80,285)"/>
<path d="M0 0 C3 1 3 1 4.1328125 2.75 C8.37862897 12.37830822 8.25816627 21.58729391 8 32 C7.98324219 32.95777344 7.96648437 33.91554687 7.94921875 34.90234375 C7.64795311 41.17727672 6.36662717 46.93065035 4.625 52.9375 C4.41593018 53.65969727 4.20686035 54.38189453 3.99145508 55.12597656 C2.77840041 59.08587574 1.47475706 62.61871428 -1 66 C-1.66 66 -2.32 66 -3 66 C-11.21320621 44.53106097 -7.15668106 23.64149831 -1 2 C-0.67 1.34 -0.34 0.68 0 0 Z " fill="#6D5E23" transform="translate(114,92)"/>
<path d="M0 0 C6.41231538 4.74511338 9.65106844 9.80487129 13 17 C13.34289062 17.69738281 13.68578125 18.39476562 14.0390625 19.11328125 C18.55942556 29.99172507 16.70334778 44.1736809 13 55 C12.6596875 56.00675781 12.319375 57.01351562 11.96875 58.05078125 C8.17558646 68.13598296 2.33777294 76.43325075 -7 82 C-10.75265219 83.1331538 -14.07623304 83.33825577 -18 83 C-21.4375 81.125 -21.4375 81.125 -24 79 C-24 78.34 -24 77.68 -24 77 C-23.38253906 76.93683594 -22.76507813 76.87367188 -22.12890625 76.80859375 C-14.32167245 75.67969389 -8.54511992 72.51927468 -3.62109375 66.2421875 C-2.71072994 64.85144722 -1.85019031 63.42831972 -1 62 C-0.01 61.505 -0.01 61.505 1 61 C7.43283215 46.30851536 12.38151245 29.07360203 7.06640625 13.359375 C5.50009527 9.89398367 3.45259301 6.8721462 1.20703125 3.8125 C0 2 0 2 0 0 Z " fill="#6D5E23" transform="translate(92,286)"/>
<path d="M0 0 C3.30210343 5.72364594 3.15013082 11.9272564 3.1328125 18.37109375 C3.13424759 19.57017113 3.13424759 19.57017113 3.13571167 20.79347229 C3.13639002 22.48365355 3.13455988 24.17383746 3.13037109 25.86401367 C3.12508174 28.39833753 3.13029462 30.93247895 3.13671875 33.46679688 C3.1446543 47.70117128 2.49751392 61.62959437 0.0625 75.6875 C-0.10701172 76.73099609 -0.27652344 77.77449219 -0.45117188 78.84960938 C-1.93107399 87.59960097 -1.93107399 87.59960097 -4 91 C-6.1640625 92.265625 -6.1640625 92.265625 -8.625 93.25 C-9.85089844 93.75273437 -9.85089844 93.75273437 -11.1015625 94.265625 C-11.72804687 94.50796875 -12.35453125 94.7503125 -13 95 C-13.66 94.01 -14.32 93.02 -15 92 C-14.67 91.01 -14.34 90.02 -14 89 C-14.33 88.67 -14.66 88.34 -15 88 C-14.37351563 87.91878906 -13.74703125 87.83757812 -13.1015625 87.75390625 C-10.87286337 87.21227652 -10.87286337 87.21227652 -10.0234375 85.27734375 C-8.21070941 78.73623454 -7.22572573 72.19120507 -6.50292969 65.44873047 C-6.20184723 62.70615349 -5.85785144 59.98412399 -5.4753418 57.25048828 C-3.84783534 45.28623892 -3.76770462 33.49608317 -3.875 21.4375 C-3.88506238 19.44336393 -3.8941824 17.44922288 -3.90234375 15.45507812 C-3.9240704 10.63659238 -3.95841559 5.81835359 -4 1 C-2 0 -2 0 0 0 Z " fill="#6D5E23" transform="translate(205,80)"/>
<path d="M0 0 C8.2454359 6.99612743 13.30303669 17.12320829 14.24609375 27.78125 C14.79203653 41.14857624 11.20730515 54.22138408 5 66 C4.34 66 3.68 66 3 66 C2.75894531 66.73863281 2.51789063 67.47726563 2.26953125 68.23828125 C0.82792691 71.37432514 -0.71864056 72.93367592 -3.3125 75.1875 C-4.07175781 75.86167969 -4.83101562 76.53585938 -5.61328125 77.23046875 C-9.82814883 80.35540331 -13.70830608 81.49877503 -18.99609375 81.3984375 C-22.6049344 80.68089024 -24.47214722 78.5910491 -27 76 C-27 75.67 -27 75.34 -27 75 C-26.31035156 74.93683594 -25.62070313 74.87367188 -24.91015625 74.80859375 C-16.69063482 73.7374627 -10.80723913 70.86720911 -5.625 64.2421875 C-4.71191245 62.85241454 -3.85054057 61.42890815 -3 60 C-2.01 59.505 -2.01 59.505 -1 59 C5.49373971 44.16941294 10.32265163 27.05853159 4.93359375 11.2265625 C3.56399733 7.96016099 1.83042115 5.02966259 0 2 C0 1.34 0 0.68 0 0 Z " fill="#6B5D23" transform="translate(128,95)"/>
<path d="M0 0 C0.33 0.99 0.66 1.98 1 3 C2.65 3.33 4.3 3.66 6 4 C6.70807413 12.79585416 5.62743837 20.57084372 3.75 29.125 C1.38705276 40.01052545 -0.10202237 50.8769084 -1.3125 61.9375 C-1.3993103 62.71281067 -1.48612061 63.48812134 -1.57556152 64.28692627 C-2.84633352 75.71549238 -2.84633352 75.71549238 -2.82739258 87.20483398 C-3 89 -3 89 -5.375 91.125 C-8 92 -8 92 -10 92 C-10.82711261 87.16836737 -11.02347278 82.84945842 -10.6171875 77.96875 C-10.53568954 76.97779831 -10.53568954 76.97779831 -10.45254517 75.96682739 C-10.27036826 73.81017298 -10.07403118 71.65516052 -9.875 69.5 C-9.80853271 68.75578796 -9.74206543 68.01157593 -9.67358398 67.24481201 C-8.34314749 52.50987436 -6.10979631 38.01746846 -3.58447266 23.44189453 C-2.71567375 18.3256343 -1.94351225 13.19645941 -1.1875 8.0625 C-1.06375 7.22734863 -0.94 6.39219727 -0.8125 5.53173828 C-0.54001676 3.68806861 -0.26970466 1.84407819 0 0 Z " fill="#6E5F24" transform="translate(239,74)"/>
<path d="M0 0 C4.875 2.875 4.875 2.875 6 4 C6.40256562 8.75027435 6.46650379 11.10031412 4.25 15.375 C2.19058525 17.77765055 0.9359595 18.95144304 -2 20 C-2.6496875 19.0409375 -2.6496875 19.0409375 -3.3125 18.0625 C-4.91239177 15.73253997 -4.91239177 15.73253997 -8 15 C-8.26683594 15.81597656 -8.53367188 16.63195312 -8.80859375 17.47265625 C-9.66766412 20.01606787 -10.55132116 22.53807151 -11.47265625 25.05859375 C-11.73240234 25.77466797 -11.99214844 26.49074219 -12.25976562 27.22851562 C-12.79412636 28.69898274 -13.33318043 30.16775295 -13.87695312 31.63476562 C-15.48486353 36.0976192 -16.42160654 40.26661675 -17 45 C-17.350625 45.886875 -17.70125 46.77375 -18.0625 47.6875 C-20.9817633 58.00223034 -18.17812831 68.783541 -16 79 C-17.65 78.67 -19.3 78.34 -21 78 C-27.09245141 61.38422343 -27.26218147 46.84486025 -22 30 C-21.79681152 29.33436035 -21.59362305 28.6687207 -21.38427734 27.98291016 C-19.22332887 20.9509296 -17.0729234 14.18480961 -13 8 C-11.2925002 9.28062485 -9.62626404 10.61767557 -8 12 C-8 12.66 -8 13.32 -8 14 C-3.33111266 10.55976722 -1.46753741 8.43119451 -0.375 2.75 C-0.25125 1.8425 -0.1275 0.935 0 0 Z " fill="#6E5F23" transform="translate(190,274)"/>
<path d="M0 0 C4.99615393 4.55531682 8.96999699 9.93999399 12 16 C12.33 14.02 12.66 12.04 13 10 C13.33 10 13.66 10 14 10 C15.42195694 24.3586739 15.48464575 37.09169791 8 50 C3.28863623 54.5126918 -1.55986091 56.65720131 -8.0546875 56.796875 C-10.32644284 56.88158594 -10.32644284 56.88158594 -13 59 C-14.9375 58.9375 -14.9375 58.9375 -17 58 C-19.25 55.4375 -19.25 55.4375 -21 53 C-17.99431793 50.99621195 -16.99484235 50.70954062 -13.5625 50.4375 C-9.200852 50.11296924 -9.200852 50.11296924 -5 49 C-4.67 48.01 -4.34 47.02 -4 46 C-3.236875 45.608125 -2.47375 45.21625 -1.6875 44.8125 C2.79749761 41.78773417 4.33069348 37.00791955 6 32 C6.86602404 17.93498966 6.86602404 17.93498966 2 5 C1.32165413 3.33805262 0.64800425 1.67401097 0 0 Z " fill="#6D5F23" transform="translate(136,317)"/>
<path d="M0 0 C0.66 0 1.32 0 2 0 C11.97627295 11.99118522 15.32797047 23.64038309 14 39 C12.72105514 44.54651216 10.6935899 49.51765911 6 53 C4.515 53.495 4.515 53.495 3 54 C2.5359375 54.50402344 2.071875 55.00804687 1.59375 55.52734375 C-0.46529974 57.42994608 -1.73594007 57.41969024 -4.5 57.5625 C-8.00433726 57.75523855 -8.92949437 57.95299625 -12 60 C-13.9375 59.9375 -13.9375 59.9375 -16 59 C-18.25 56.4375 -18.25 56.4375 -20 54 C-16.67148232 50.98656045 -14.18117187 50.55332456 -9.75 50.3125 C-8.67234375 50.24675781 -7.5946875 50.18101562 -6.484375 50.11328125 C-5.25460937 50.05720703 -5.25460937 50.05720703 -4 50 C-3.67 49.01 -3.34 48.02 -3 47 C-2.236875 46.608125 -1.47375 46.21625 -0.6875 45.8125 C3.90522463 42.71508107 5.48648493 38.13964612 6.75 32.875 C6.8325 31.59625 6.915 30.3175 7 29 C7.09796875 28.00226563 7.1959375 27.00453125 7.296875 25.9765625 C7.89622485 15.71845932 4.81089135 8.76269497 0 0 Z " fill="#6E5F24" transform="translate(326,316)"/>
<path d="M0 0 C4.875 2.75 4.875 2.75 6 5 C6.85827613 12.97774699 5.48443895 19.78950041 2 27 C1.34 27.66 0.68 28.32 0 29 C0 27.02 0 25.04 0 23 C-0.29132813 23.56847656 -0.58265625 24.13695312 -0.8828125 24.72265625 C-3.43375507 29.5277336 -5.96667252 33.38276407 -9.9609375 37.1015625 C-11.27601658 39.50430097 -11.1651899 41.27734943 -10.66308594 43.93554688 C-9.27040554 48.27152089 -6.79435526 52.06825572 -4.4375 55.9375 C-3.91736328 56.81212891 -3.39722656 57.68675781 -2.86132812 58.58789062 C-1.58443133 60.73167148 -0.29725522 62.8684991 1 65 C0.01 65.495 0.01 65.495 -1 66 C-0.34 67.98 0.32 69.96 1 72 C0.01 72 -0.98 72 -2 72 C-3.03572896 70.25877451 -4.0531252 68.50663405 -5.0625 66.75 C-5.63097656 65.77546875 -6.19945312 64.8009375 -6.78515625 63.796875 C-8 61 -8 61 -7.44921875 59.03515625 C-6.71943778 56.76084106 -6.71943778 56.76084106 -8.546875 54.01171875 C-9.27390625 52.91472656 -10.0009375 51.81773437 -10.75 50.6875 C-13.69883432 46.20590827 -16.01447753 41.95752287 -18 37 C-17.50628906 36.59007812 -17.01257813 36.18015625 -16.50390625 35.7578125 C-15.86324219 35.21898437 -15.22257812 34.68015625 -14.5625 34.125 C-13.92441406 33.59132813 -13.28632813 33.05765625 -12.62890625 32.5078125 C-10.89194996 31.0777243 -10.89194996 31.0777243 -10 29 C-10.48210937 29.433125 -10.96421875 29.86625 -11.4609375 30.3125 C-12.09257812 30.869375 -12.72421875 31.42625 -13.375 32 C-14.00148438 32.556875 -14.62796875 33.11375 -15.2734375 33.6875 C-17 35 -17 35 -19 35 C-17.70647285 32.17385775 -16.30607134 30.07640869 -14.1875 27.8125 C-10.73753265 23.91327401 -8.36540145 19.61567274 -6 15 C-5.67 15.66 -5.34 16.32 -5 17 C-4.34 17 -3.68 17 -3 17 C-1.1582605 11.35199888 -0.45224761 5.91492272 0 0 Z " fill="#6D5E23" transform="translate(291,278)"/>
<path d="M0 0 C0 8.91 0 17.82 0 27 C-0.33 27 -0.66 27 -1 27 C-1 21.06 -1 15.12 -1 9 C-2.98 9.33 -4.96 9.66 -7 10 C-7 21.88 -7 33.76 -7 46 C-7.66 46 -8.32 46 -9 46 C-8.938125 47.051875 -8.87625 48.10375 -8.8125 49.1875 C-9.01066474 53.21684975 -9.40258484 54.95475465 -12 58 C-14.6875 58.8125 -14.6875 58.8125 -17 59 C-18.32 57.35 -19.64 55.7 -21 54 C-20.38125 53.360625 -19.7625 52.72125 -19.125 52.0625 C-16.43405212 48.18436924 -15.76093455 44.59564421 -15 40 C-14.67 40 -14.34 40 -14 40 C-13.67 28.12 -13.34 16.24 -13 4 C-9.78548731 2.39274365 -6.56387464 2.94251815 -3 3 C-3 2.34 -3 1.68 -3 1 C-1 0 -1 0 0 0 Z " fill="#716224" transform="translate(253,321)"/>
<path d="M0 0 C1 4 1 4 0 7 C1.65 7 3.3 7 5 7 C5 7.33 5 7.66 5 8 C3.35 8 1.7 8 0 8 C0.02320313 8.62003906 0.04640625 9.24007813 0.0703125 9.87890625 C0.25189898 18.78961446 -0.16201114 28.48603341 -3 37 C-3.66 37 -4.32 37 -5 37 C-5.0825 37.598125 -5.165 38.19625 -5.25 38.8125 C-6.27471993 41.80126647 -7.24710154 42.41708338 -10 44 C-15.72664779 46.45749846 -20.77987955 47.71378431 -27 47 C-30.5 45.1875 -30.5 45.1875 -33 43 C-33 42.01 -33 41.02 -33 40 C-31.906875 40.0825 -30.81375 40.165 -29.6875 40.25 C-24.15758937 40.24012516 -18.81158095 38.71282997 -14 36 C-12.94932242 34.36480753 -11.93960484 32.7014466 -11 31 C-10.34 31 -9.68 31 -9 31 C-8.34 23.41 -7.68 15.82 -7 8 C-6.34 8.66 -5.68 9.32 -5 10 C-3.35 6.7 -1.7 3.4 0 0 Z " fill="#6A5C23" transform="translate(196,322)"/>
<path d="M0 0 C4.41063842 4.41063842 5.96796397 11.32880552 6.04101562 17.41992188 C5.73146854 20.89197547 5.28381751 24.30551332 4.75 27.75 C4.58886719 28.9359375 4.42773438 30.121875 4.26171875 31.34375 C3.86553581 34.23355496 3.44476716 37.11734481 3 40 C2.34 40 1.68 40 1 40 C1.17273438 40.51949219 1.34546875 41.03898437 1.5234375 41.57421875 C2.57528552 46.9282976 1.48491652 52.60453645 1 58 C0.94972656 58.79277344 0.89945313 59.58554688 0.84765625 60.40234375 C0.6875 62.25 0.6875 62.25 0 65 C-2.0625 66.4375 -2.0625 66.4375 -4 67 C-4 69.64 -4 72.28 -4 75 C-6.39489543 74.25675659 -7.70777616 73.52942646 -8.93359375 71.30859375 C-9.67219923 69.55926499 -10.34049685 67.78065851 -11 66 C-10.34 66 -9.68 66 -9 66 C-8.505 65.505 -8.505 65.505 -8 65 C-6.67405895 64.63837971 -5.34061543 64.30271961 -4 64 C-4.15597656 63.29617187 -4.31195313 62.59234375 -4.47265625 61.8671875 C-6.02181685 54.00853173 -7.72902756 43.45805512 -4 36 C-3.63375899 33.30927249 -3.31333777 30.629131 -3.02734375 27.9296875 C-2.93997452 27.13345978 -2.85260529 26.33723206 -2.7625885 25.51687622 C-2.48395679 22.96996169 -2.21066973 20.42250557 -1.9375 17.875 C-1.74970028 16.14970131 -1.56155362 14.42444034 -1.37304688 12.69921875 C-0.91133537 8.46657334 -0.45441685 4.23343452 0 0 Z " fill="#756525" transform="translate(163,103)"/>
<path d="M0 0 C0 8.25 0 16.5 0 25 C-0.33 25 -0.66 25 -1 25 C-1 19.39 -1 13.78 -1 8 C-2.65 8.33 -4.3 8.66 -6 9 C-5.91298828 10.93939453 -5.91298828 10.93939453 -5.82421875 12.91796875 C-5.44831017 25.04160406 -6.0644469 34.59667035 -13 45 C-14.65 44.67 -16.3 44.34 -18 44 C-19.42592593 38.41512345 -18.70371292 35.42066261 -16.10546875 30.30859375 C-13.19305673 24.22648949 -12.6150048 18.76513273 -12.375 12.125 C-12.31699219 10.80628906 -12.31699219 10.80628906 -12.2578125 9.4609375 C-12.16418966 7.30761207 -12.08103541 5.15383586 -12 3 C-10.37604003 2.49663233 -8.75079459 1.99741024 -7.125 1.5 C-6.22007812 1.2215625 -5.31515625 0.943125 -4.3828125 0.65625 C-2 0 -2 0 0 0 Z " fill="#716124" transform="translate(223,325)"/>
<path d="M0 0 C0.66 0.33 1.32 0.66 2 1 C3.2184661 8.31079659 3.1833379 15.60537128 3 23 C2.98324219 23.95777344 2.96648437 24.91554688 2.94921875 25.90234375 C2.51178644 35.01343376 -0.23058743 43.37496602 -3 52 C-3.99 52 -4.98 52 -6 52 C-9.12587268 37.15210475 -6.89727896 13.79455792 0 0 Z " fill="#171612" transform="translate(119,101)"/>
<path d="M0 0 C0.66 0.33 1.32 0.66 2 1 C3.2184661 8.31079659 3.1833379 15.60537128 3 23 C2.98324219 23.95777344 2.96648437 24.91554688 2.94921875 25.90234375 C2.64384397 32.26286414 1.32276936 38.09675202 -0.4375 44.1875 C-0.65494873 44.94321289 -0.87239746 45.69892578 -1.09643555 46.47753906 C-1.66498288 48.33979331 -2.3253155 50.17351765 -3 52 C-3.99 52.495 -3.99 52.495 -5 53 C-11.66111095 37.59618093 -4.24462858 15.42717798 0 0 Z " fill="#181712" transform="translate(85,294)"/>
<path d="M0 0 C0.66 0 1.32 0 2 0 C12.20929812 12.0449601 15.06023778 25.91515952 18 41 C18.33 39.35 18.66 37.7 19 36 C19.33 36 19.66 36 20 36 C20 45.9 20 55.8 20 66 C17.79841533 62.697623 17.14095492 60.14989263 16.1953125 56.3046875 C16.03137497 55.644189 15.86743744 54.98369049 15.6985321 54.30317688 C15.34926123 52.89186212 15.00278115 51.47985428 14.65884399 50.06723022 C14.12297437 47.86668174 13.57928148 45.66818815 13.03393555 43.4699707 C11.36990503 36.73976364 9.75639524 30.00216905 8.2644043 23.23144531 C6.83943829 16.78638025 5.00675365 11.01350731 2.05078125 5.1015625 C1 3 1 3 0 0 Z " fill="#766625" transform="translate(165,76)"/>
<path d="M0 0 C4 1 4 1 5.78125 2.875 C7.64312507 7.64903865 7.00028704 11.97079873 6.5 17 C6.43296875 17.98484375 6.3659375 18.9696875 6.296875 19.984375 C5.86015196 24.73694931 5.57623195 27.29120765 2.50390625 31.0703125 C1.67761719 31.70710938 0.85132813 32.34390625 0 33 C-0.7734375 33.928125 -0.7734375 33.928125 -1.5625 34.875 C-3 36 -3 36 -5.0625 35.9375 C-7.56594444 34.72615591 -7.87095534 33.48389826 -9 31 C-9.99 30.34 -10.98 29.68 -12 29 C-11.071875 28.5875 -10.14375 28.175 -9.1875 27.75 C-6.07312814 26.04014879 -4.95780365 24.8388153 -3 22 C-2.34 22 -1.68 22 -1 22 C-0.67 14.74 -0.34 7.48 0 0 Z " fill="#6D5E23" transform="translate(269,340)"/>
<path d="M0 0 C4.60480127 2.30240063 5.13046923 3.37068572 7 8 C7.94971471 12.68073679 8.3004715 17.36490531 8.5625 22.125 C8.6049585 22.86548584 8.64741699 23.60597168 8.69116211 24.36889648 C9.02472321 30.58172367 9.10788537 36.77861056 9 43 C6.69 43 4.38 43 2 43 C1.34 28.81 0.68 14.62 0 0 Z " fill="#6E5F24" transform="translate(237,272)"/>
<path d="M0 0 C2.71549963 0.21779605 4.76621305 0.69290435 7.375 1.5625 C7.375 2.2225 7.375 2.8825 7.375 3.5625 C9.85 4.0575 9.85 4.0575 12.375 4.5625 C12.045 5.2225 11.715 5.8825 11.375 6.5625 C9.44921875 6.80078125 9.44921875 6.80078125 7.0625 6.875 C3.80329531 7.20714825 2.55387228 7.43598058 -0.1875 9.375 C-2.46342613 14.4216188 -2.44672702 19.12697784 -1.625 24.5625 C-0.49117398 27.41989377 0.80435929 29.96451637 2.37890625 32.6015625 C2.70761719 33.24867188 3.03632813 33.89578125 3.375 34.5625 C3.045 35.2225 2.715 35.8825 2.375 36.5625 C-3.89471731 29.41015258 -9.44102382 22.23739237 -10.1875 12.4375 C-9.24922209 5.97380776 -7.34708167 0.08389816 0 0 Z " fill="#6E5F24" transform="translate(322.625,279.4375)"/>
<path d="M0 0 C0 0.66 0 1.32 0 2 C-0.66 2 -1.32 2 -2 2 C-2 2.66 -2 3.32 -2 4 C-4.16015625 5.55078125 -4.16015625 5.55078125 -7.0625 7.3125 C-10.34890388 9.33554811 -13.55442208 11.35008607 -16.625 13.6875 C-19.90806307 16.1019857 -23.42474922 17.65023527 -27.1796875 19.203125 C-28.98173766 19.8603411 -28.98173766 19.8603411 -30 21 C-32.8125 21.375 -32.8125 21.375 -36 21 C-38.375 18.5 -38.375 18.5 -40 16 C-37.35261084 14.5393715 -36.10551666 14 -33 14 C-33 13.34 -33 12.68 -33 12 C-31.71086513 11.32845067 -30.41859796 10.66291141 -29.125 10 C-28.40570313 9.62875 -27.68640625 9.2575 -26.9453125 8.875 C-25 8 -25 8 -23 8 C-23 8.66 -23 9.32 -23 10 C-22.05125 9.46375 -21.1025 8.9275 -20.125 8.375 C-19.48949219 8.01664063 -18.85398438 7.65828125 -18.19921875 7.2890625 C-16.61742792 6.36190269 -15.05985065 5.39297443 -13.51953125 4.3984375 C-5.31543096 -0.83927857 -5.31543096 -0.83927857 0 0 Z " fill="#695B23" transform="translate(258,162)"/>
<path d="M0 0 C0.99 0.33 1.98 0.66 3 1 C3 1.66 3 2.32 3 3 C3.94875 3.12375 4.8975 3.2475 5.875 3.375 C9 4 9 4 11 6 C9.66195312 6.00386719 9.66195312 6.00386719 8.296875 6.0078125 C1.15073082 6.04888392 1.15073082 6.04888392 -4.8125 9.4375 C-6.98646981 15.95940944 -6.92616705 21.49407808 -4.125 27.8125 C-3.4249876 29.2125248 -2.71748387 30.60884807 -2 32 C-1.32165413 33.66194738 -0.64800425 35.32598903 0 37 C-6.29954271 31.25629929 -12.26308337 23.76346378 -13.37109375 15.09765625 C-13.57277567 5.87960608 -13.57277567 5.87960608 -11 2.25 C-6.90851912 -0.81861066 -5.02322514 -0.56713832 0 0 Z " fill="#6C5D23" transform="translate(136,280)"/>
<path d="M0 0 C0.33 0 0.66 0 1 0 C1.02578125 1.10859375 1.0515625 2.2171875 1.078125 3.359375 C1.13441656 4.82295547 1.19176367 6.28649562 1.25 7.75 C1.26417969 8.47960937 1.27835937 9.20921875 1.29296875 9.9609375 C1.4448246 13.30176626 1.74833594 15.61510203 3.59375 18.4375 C6.79478874 20.51609659 9.47138043 20.83015338 13.25 21.25 C14.51328125 21.39953125 15.7765625 21.5490625 17.078125 21.703125 C18.04234375 21.80109375 19.0065625 21.8990625 20 22 C20 22.33 20 22.66 20 23 C19.02417969 23.09796875 18.04835938 23.1959375 17.04296875 23.296875 C15.77066406 23.44640625 14.49835938 23.5959375 13.1875 23.75 C11.92292969 23.88921875 10.65835937 24.0284375 9.35546875 24.171875 C6.03986379 24.72975278 6.03986379 24.72975278 4.09375 26.59375 C2.58024202 29.92346755 2.43153027 33.15188488 2.3125 36.75 C2.27833984 37.44738281 2.24417969 38.14476562 2.20898438 38.86328125 C2.12691705 40.57497108 2.06177081 42.2874576 2 44 C-0.10627994 40.84058008 -0.38547889 39.24389853 -0.875 35.5625 C-1.44598011 32.28368997 -1.83194901 30.26500348 -3.625 27.4375 C-6.95706992 25.42072084 -10.20011192 24.85803924 -14 24 C-14.66 23.34 -15.32 22.68 -16 22 C-15.32453125 21.91363281 -14.6490625 21.82726562 -13.953125 21.73828125 C-13.06109375 21.59777344 -12.1690625 21.45726562 -11.25 21.3125 C-10.36828125 21.18488281 -9.4865625 21.05726563 -8.578125 20.92578125 C-5.04550427 19.65724926 -3.93002711 18.2052236 -2 15 C-1.40854282 12.30775386 -0.99942889 9.90263737 -0.75 7.1875 C-0.67265625 6.49462891 -0.5953125 5.80175781 -0.515625 5.08789062 C-0.32866043 3.39352419 -0.16222073 1.6969142 0 0 Z " fill="#EAD57A" transform="translate(450,235)"/>
<path d="M0 0 C0.33 0 0.66 0 1 0 C1.02464849 5.39346988 1.04283531 10.78690725 1.05493164 16.18041992 C1.05997231 18.01668875 1.06680477 19.85295354 1.07543945 21.68920898 C1.08751672 24.32276401 1.09323081 26.95626616 1.09765625 29.58984375 C1.10281754 30.41588608 1.10797882 31.24192841 1.11329651 32.09300232 C1.11349205 34.06236368 1.06204152 36.03161614 1 38 C0 39 0 39 -2.06640625 39.09765625 C-2.89011719 39.08605469 -3.71382812 39.07445312 -4.5625 39.0625 C-5.38878906 39.05347656 -6.21507812 39.04445313 -7.06640625 39.03515625 C-7.70449219 39.02355469 -8.34257812 39.01195312 -9 39 C-8.80664062 38.06800781 -8.61328125 37.13601563 -8.4140625 36.17578125 C-7.12711546 29.87483759 -5.9144273 23.62794219 -5.0625 17.25 C-4.17861037 11.15342793 -2.34502337 5.6804207 0 0 Z " fill="#706024" transform="translate(222,279)"/>
<path d="M0 0 C-0.99 0.33 -1.98 0.66 -3 1 C-5.22085338 4.97415868 -5.17563129 8.5214021 -5 13 C-5.99 13.33 -6.98 13.66 -8 14 C-8 16.64 -8 19.28 -8 22 C-8.66 22 -9.32 22 -10 22 C-10.33 19.36 -10.66 16.72 -11 14 C-11.99 15.485 -11.99 15.485 -13 17 C-14.95578024 14.88775734 -15.98119829 13.6768617 -16.0625 10.75 C-14.45558018 6.59091341 -12.09443455 3.20655175 -9 0 C-5.65825442 -1.35261131 -3.3883329 -1.1294443 0 0 Z " fill="#DEBE3A" transform="translate(233,267)"/>
<path d="M0 0 C5.625 -0.25 5.625 -0.25 9 2 C8.56310676 7.25832226 6.90368994 9.90043802 3.5 13.875 C2.6853125 14.84179688 1.870625 15.80859375 1.03125 16.8046875 C0.3609375 17.52914063 -0.309375 18.25359375 -1 19 C-1.33 19 -1.66 19 -2 19 C-1.85913398 16.39547729 -1.71251536 13.79149803 -1.5625 11.1875 C-1.50352539 10.08051758 -1.50352539 10.08051758 -1.44335938 8.95117188 C-1.25618965 5.76928658 -1.01279207 3.03837622 0 0 Z " fill="#716224" transform="translate(275,280)"/>
<path d="M0 0 C0.55171875 0.49113281 1.1034375 0.98226562 1.671875 1.48828125 C4.46370069 3.30109424 5.96185741 3.3172951 9.25 3.1875 C10.58804687 3.14689453 10.58804687 3.14689453 11.953125 3.10546875 C12.96632813 3.05326172 12.96632813 3.05326172 14 3 C13.154375 3.804375 12.30875 4.60875 11.4375 5.4375 C9.62499068 7.56057974 9.01907569 8.58101605 8.890625 11.40234375 C9.15886708 13.63651793 9.50733869 15.80497434 10 18 C9.54625 17.34 9.0925 16.68 8.625 16 C4.66767967 12.9848988 0.80995855 13.66954483 -4 14 C-2.125 10.125 -2.125 10.125 -1 9 C-0.76807135 7.48530552 -0.58784762 5.96245438 -0.4375 4.4375 C-0.35371094 3.61121094 -0.26992188 2.78492188 -0.18359375 1.93359375 C-0.12300781 1.29550781 -0.06242187 0.65742188 0 0 Z " fill="#DECA75" transform="translate(355,179)"/>
<path d="M0 0 C10.10132996 -0.6269791 10.10132996 -0.6269791 13.6875 1.875 C15 4 15 4 15 6 C15.804375 6.28875 16.60875 6.5775 17.4375 6.875 C20 8 20 8 21 10 C20.67 10.66 20.34 11.32 20 12 C18.68 12 17.36 12 16 12 C16 11.34 16 10.68 16 10 C11.545 9.01 11.545 9.01 7 8 C7 7.34 7 6.68 7 6 C6.05125 5.87625 5.1025 5.7525 4.125 5.625 C1 5 1 5 -1 3 C1.60582371 2.06934867 2.64198224 1.85082593 5.25 2.9375 C5.8275 3.288125 6.405 3.63875 7 4 C7 3.34 7 2.68 7 2 C4.69 1.67 2.38 1.34 0 1 C0 0.67 0 0.34 0 0 Z " fill="#786826" transform="translate(317,269)"/>
<path d="M0 0 C0.680625 0.804375 1.36125 1.60875 2.0625 2.4375 C5.48477302 5.42288711 7.5428126 5.73781251 12 6 C11.195625 6.474375 10.39125 6.94875 9.5625 7.4375 C6.00982428 10.99017572 6.11421377 14.14072325 6 19 C5.525625 18.21625 5.05125 17.4325 4.5625 16.625 C1.09107207 13.0689031 -2.2045751 12.68652451 -7 12 C-6.57847656 11.55269531 -6.15695312 11.10539062 -5.72265625 10.64453125 C-1.4622021 6.01600234 -1.4622021 6.01600234 0 0 Z " fill="#E8D479" transform="translate(449,61)"/>
<path d="M0 0 C1.8125 0.1875 1.8125 0.1875 4 1 C6.52554063 4.66740741 8.11176005 8.53757826 9.6875 12.6875 C10.12449219 13.82574219 10.56148438 14.96398437 11.01171875 16.13671875 C12 19 12 19 12 21 C13.32 21.33 14.64 21.66 16 22 C15.67 23.32 15.34 24.64 15 26 C14.34 26 13.68 26 13 26 C13 26.99 13 27.98 13 29 C12.34 29 11.68 29 11 29 C10.62488281 27.98421875 10.24976563 26.9684375 9.86328125 25.921875 C7.0214239 18.26490741 4.09740001 10.6709692 0.8828125 3.16015625 C0 1 0 1 0 0 Z " fill="#736325" transform="translate(264,84)"/>
<path d="M0 0 C3.125 9.375 3.125 9.375 1 14 C0.01 14 -0.98 14 -2 14 C-2.99 15.485 -2.99 15.485 -4 17 C-4 16.01 -4 15.02 -4 14 C-4.66 14 -5.32 14 -6 14 C-6.66 16.31 -7.32 18.62 -8 21 C-9.3609623 18.2780754 -8.70366248 16.8168043 -8.0625 13.875 C-7.86785156 12.96492188 -7.67320312 12.05484375 -7.47265625 11.1171875 C-7.31667969 10.41851562 -7.16070312 9.71984375 -7 9 C-7.66 9 -8.32 9 -9 9 C-9 9.66 -9 10.32 -9 11 C-9.66 11 -10.32 11 -11 11 C-10.34 8.69 -9.68 6.38 -9 4 C-7.68 4.33 -6.36 4.66 -5 5 C-4.34 4.01 -3.68 3.02 -3 2 C-2.67 2.99 -2.34 3.98 -2 5 C-1.34 3.35 -0.68 1.7 0 0 Z " fill="#CDB037" transform="translate(166,285)"/>
<path d="M0 0 C10.15254609 -0.63015803 10.15254609 -0.63015803 13.4375 1.8125 C13.953125 2.534375 14.46875 3.25625 15 4 C16.97013071 5.56451556 18.75179768 6.87589884 21 8 C20.67 9.32 20.34 10.64 20 12 C18.68 12 17.36 12 16 12 C16 11.34 16 10.68 16 10 C15.071875 9.855625 14.14375 9.71125 13.1875 9.5625 C10 9 10 9 7 8 C7 7.34 7 6.68 7 6 C5.68 5.67 4.36 5.34 3 5 C3.99 4.67 4.98 4.34 6 4 C6.33 3.34 6.66 2.68 7 2 C4.69 1.67 2.38 1.34 0 1 C0 0.67 0 0.34 0 0 Z " fill="#655822" transform="translate(126,269)"/>
<path d="M0 0 C0.33 0 0.66 0 1 0 C1.66 2.64 2.32 5.28 3 8 C3.66 6.68 4.32 5.36 5 4 C6.4783226 6.95664519 6.06032783 9.74229737 6 13 C5.01 13.33 4.02 13.66 3 14 C3 14.99 3 15.98 3 17 C2.34 17 1.68 17 1 17 C0.67 17.33 0.34 17.66 0 18 C-1.9375 17.3125 -1.9375 17.3125 -4 16 C-4.75 13.375 -4.75 13.375 -5 11 C-3 10 -3 10 -2 10 C-2.04125 9.0925 -2.0825 8.185 -2.125 7.25 C-2.00468444 4.1217954 -1.6085292 2.61385994 0 0 Z " fill="#B49A32" transform="translate(153,154)"/>
<path d="M0 0 C1.89213369 2.38573379 3.02391783 4.07175348 4 7 C4.66 7.33 5.32 7.66 6 8 C6 8.66 6 9.32 6 10 C5.34 10 4.68 10 4 10 C4 11.32 4 12.64 4 14 C3.34 14 2.68 14 2 14 C1.67 15.65 1.34 17.3 1 19 C0.34 19 -0.32 19 -1 19 C-1.33 19.66 -1.66 20.32 -2 21 C-2.33 20.67 -2.66 20.34 -3 20 C-2.45542363 13.24725306 -1.27988845 6.64796427 0 0 Z " fill="#E8C73C" transform="translate(153,301)"/>
<path d="M0 0 C1.41756832 2.83513664 1.26871785 4.8521623 1 8 C-0.4609375 10.703125 -0.4609375 10.703125 -2.375 13.25 C-3.00148438 14.10078125 -3.62796875 14.9515625 -4.2734375 15.828125 C-6 18 -6 18 -8 20 C-8.99 20 -9.98 20 -11 20 C-11.33 20.66 -11.66 21.32 -12 22 C-12.34611224 18.75808204 -12.21880011 17.33032443 -10.390625 14.5703125 C-9.68421875 13.76335937 -8.9778125 12.95640625 -8.25 12.125 C-4.96306436 8.23196275 -2.35257588 4.50910376 0 0 Z " fill="#5C5020" transform="translate(291,300)"/>
<path d="M0 0 C7.28784648 7.28784648 7.28784648 7.28784648 7.75 10.9375 C7.84796875 11.62714844 7.9459375 12.31679688 8.046875 13.02734375 C8 15 8 15 6 18 C4.1875 17.8125 4.1875 17.8125 2 17 C0.25 14.4375 0.25 14.4375 -1 12 C-0.67 11.67 -0.34 11.34 0 11 C0.07226502 9.14712498 0.0838122 7.29166122 0.0625 5.4375 C0.05347656 4.42558594 0.04445313 3.41367187 0.03515625 2.37109375 C0.02355469 1.58863281 0.01195312 0.80617188 0 0 Z " fill="#675922" transform="translate(292,350)"/>
<path d="M0 0 C0.33 0.66 0.66 1.32 1 2 C1.66 2.33 2.32 2.66 3 3 C1.02 6.96 -0.96 10.92 -3 15 C-3.99 15 -4.98 15 -6 15 C-7.68711423 16.6459651 -9.3545622 18.31237149 -11 20 C-11.66 20 -12.32 20 -13 20 C-11.70647285 17.17385775 -10.30607134 15.07640869 -8.1875 12.8125 C-4.73753265 8.91327401 -2.36540145 4.61567274 0 0 Z " fill="#DABB39" transform="translate(285,293)"/>
<path d="M0 0 C0.99 0 1.98 0 3 0 C3.33 0.99 3.66 1.98 4 3 C4.66 3.33 5.32 3.66 6 4 C6 4.99 6 5.98 6 7 C6.66 7 7.32 7 8 7 C8 7.99 8 8.98 8 10 C6.3125 10.75 6.3125 10.75 4 11 C1.02025145 8.96504977 -1.51836099 6.61225159 -4 4 C-4.33 4.66 -4.66 5.32 -5 6 C-5.33 4.68 -5.66 3.36 -6 2 C-3.69 2.33 -1.38 2.66 1 3 C0.67 2.01 0.34 1.02 0 0 Z " fill="#665922" transform="translate(86,273)"/>
<path d="M0 0 C0.66 0.33 1.32 0.66 2 1 C2 4.63 2 8.26 2 12 C1.01 12 0.02 12 -1 12 C-0.67 12.99 -0.34 13.98 0 15 C-1.98 15.99 -1.98 15.99 -4 17 C-4.77418743 13.61292998 -5.37550085 10.47338282 -5 7 C-4.01 6.34 -3.02 5.68 -2 5 C-1.67 5.66 -1.34 6.32 -1 7 C-0.67 4.69 -0.34 2.38 0 0 Z " fill="#3B3419" transform="translate(163,161)"/>
<path d="M0 0 C0.99 0 1.98 0 3 0 C3.33 0.99 3.66 1.98 4 3 C4.66 3.33 5.32 3.66 6 4 C6 4.99 6 5.98 6 7 C6.66 7 7.32 7 8 7 C8 7.99 8 8.98 8 10 C6.3125 10.75 6.3125 10.75 4 11 C1.02025145 8.96504977 -1.51836099 6.61225159 -4 4 C-4.33 4.66 -4.66 5.32 -5 6 C-5.33 4.68 -5.66 3.36 -6 2 C-3.69 2.33 -1.38 2.66 1 3 C0.67 2.01 0.34 1.02 0 0 Z " fill="#655722" transform="translate(120,80)"/>
<path d="M0 0 C2.24064723 2.32363416 2.96556146 3.49490144 3.1875 6.75 C3.125625 7.4925 3.06375 8.235 3 9 C0.33333333 9 -2.33333333 9 -5 9 C-5.33 6.03 -5.66 3.06 -6 0 C-3 -1 -3 -1 0 0 Z " fill="#CFB237" transform="translate(298,77)"/>
<path d="M0 0 C0.33 0 0.66 0 1 0 C1.33 1.98 1.66 3.96 2 6 C2.66 6 3.32 6 4 6 C3.67 7.65 3.34 9.3 3 11 C2.01 11.33 1.02 11.66 0 12 C0 14.64 0 17.28 0 20 C-2.39489543 19.25675659 -3.70777616 18.52942646 -4.93359375 16.30859375 C-5.67219923 14.55926499 -6.34049685 12.78065851 -7 11 C-6.34 11 -5.68 11 -5 11 C-4.67 10.67 -4.34 10.34 -4 10 C-2.68 9.67 -1.36 9.34 0 9 C0 6.03 0 3.06 0 0 Z " fill="#675A22" transform="translate(159,158)"/>
<path d="M0 0 C0.66 0.66 1.32 1.32 2 2 C2.66 1.67 3.32 1.34 4 1 C4 5.62 4 10.24 4 15 C3.01 15 2.02 15 1 15 C0.01 11.04 -0.98 7.08 -2 3 C-1.34 3 -0.68 3 0 3 C0 2.01 0 1.02 0 0 Z " fill="#CEB137" transform="translate(182,149)"/>
<path d="M0 0 C0.99 0.33 1.98 0.66 3 1 C3 1.99 3 2.98 3 4 C3.66 4.33 4.32 4.66 5 5 C4.01 5.495 4.01 5.495 3 6 C2.53101037 8.8159849 2.53101037 8.8159849 2.375 12.0625 C2.30023438 13.16722656 2.22546875 14.27195312 2.1484375 15.41015625 C2.09945313 16.26480469 2.05046875 17.11945313 2 18 C1.67 18 1.34 18 1 18 C0.67 14.37 0.34 10.74 0 7 C-0.33 8.65 -0.66 10.3 -1 12 C-1.33 12 -1.66 12 -2 12 C-2.33 8.7 -2.66 5.4 -3 2 C-2.01 1.34 -1.02 0.68 0 0 Z " fill="#D8B939" transform="translate(267,335)"/>
<path d="M0 0 C3.125 9.375 3.125 9.375 1 14 C-0.32 14 -1.64 14 -3 14 C-3.39063507 12.56666979 -3.76198474 11.12807321 -4.125 9.6875 C-4.33382812 8.88699219 -4.54265625 8.08648437 -4.7578125 7.26171875 C-5 5 -5 5 -3 2 C-2.67 2.99 -2.34 3.98 -2 5 C-1.34 3.35 -0.68 1.7 0 0 Z " fill="#DDBD3A" transform="translate(166,285)"/>
<path d="M0 0 C0.33 0 0.66 0 1 0 C1.29785422 5.6666765 0.31081409 10.08825729 -1.5 15.4375 C-1.73847656 16.16904297 -1.97695312 16.90058594 -2.22265625 17.65429688 C-2.80596172 19.4392116 -3.40169935 21.22005557 -4 23 C-4.33 23 -4.66 23 -5 23 C-5.73455125 14.47920547 -3.11008659 7.80853883 0 0 Z " fill="#292515" transform="translate(222,279)"/>
<path d="M0 0 C-2.31 0.66 -4.62 1.32 -7 2 C-7 2.66 -7 3.32 -7 4 C-8.60875 4.4640625 -8.60875 4.4640625 -10.25 4.9375 C-13.83688279 6.42172736 -14.9043921 8.16743998 -16.4375 11.6875 C-16.98208162 13.11617228 -17.51104188 14.55134767 -18 16 C-18.66 14.68 -19.32 13.36 -20 12 C-16.485026 6.18677377 -12.8794892 2.07370784 -6.3125 -0.375 C-3 -1 -3 -1 0 0 Z " fill="#CAAD36" transform="translate(129,272)"/>
<path d="M0 0 C1.98 0.66 3.96 1.32 6 2 C5.34 5.3 4.68 8.6 4 12 C3.34 11.67 2.68 11.34 2 11 C2 9.02 2 7.04 2 5 C1.071875 5.99 1.071875 5.99 0.125 7 C-2 9 -2 9 -4 9 C-4.33 8.01 -4.66 7.02 -5 6 C-4.360625 5.7525 -3.72125 5.505 -3.0625 5.25 C-0.81258459 4.18437567 -0.81258459 4.18437567 -0.25 1.875 C-0.1675 1.25625 -0.085 0.6375 0 0 Z " fill="#DCBC3A" transform="translate(72,278)"/>
<path d="M0 0 C10.15317287 -0.63019694 10.15317287 -0.63019694 13.6875 2 C14.120625 2.66 14.55375 3.32 15 4 C14.67 4.66 14.34 5.32 14 6 C11.36 5.67 8.72 5.34 6 5 C6.33 4.01 6.66 3.02 7 2 C4.69 1.67 2.38 1.34 0 1 C0 0.67 0 0.34 0 0 Z " fill="#CDAF37" transform="translate(317,269)"/>
<path d="M0 0 C0.99 0.33 1.98 0.66 3 1 C3 1.66 3 2.32 3 3 C3.66 3 4.32 3 5 3 C4.67 5.97 4.34 8.94 4 12 C3.34 11.67 2.68 11.34 2 11 C2 9.02 2 7.04 2 5 C1.071875 5.99 1.071875 5.99 0.125 7 C-2 9 -2 9 -4 9 C-4.33 8.01 -4.66 7.02 -5 6 C-4.360625 5.7525 -3.72125 5.505 -3.0625 5.25 C-0.81258459 4.18437567 -0.81258459 4.18437567 -0.25 1.875 C-0.1675 1.25625 -0.085 0.6375 0 0 Z " fill="#DDBD3A" transform="translate(106,85)"/>
<path d="M0 0 C2.22333727 3.81143533 3.10108198 7.71285253 4 12 C3.67 12.66 3.34 13.32 3 14 C2.34 14 1.68 14 1 14 C0.46605821 12.5882217 -0.05165104 11.17029756 -0.5625 9.75 C-0.85253906 8.96109375 -1.14257812 8.1721875 -1.44140625 7.359375 C-2.0499718 4.7889303 -1.90655049 3.45365761 -1 1 C-0.67 0.67 -0.34 0.34 0 0 Z " fill="#C1A634" transform="translate(152,340)"/>
<path d="M0 0 C10.15317287 -0.63019694 10.15317287 -0.63019694 13.6875 2 C14.120625 2.66 14.55375 3.32 15 4 C14.67 4.99 14.34 5.98 14 7 C12.02 6.34 10.04 5.68 8 5 C8 4.34 8 3.68 8 3 C5.36 2.34 2.72 1.68 0 1 C0 0.67 0 0.34 0 0 Z " fill="#D4B638" transform="translate(126,269)"/>
<path d="M0 0 C2.15800945 3.23701418 2.53850667 5.20175745 3.125 9 C3.29257813 10.051875 3.46015625 11.10375 3.6328125 12.1875 C4 15 4 15 4 18 C3.34 18 2.68 18 2 18 C1.67 18.66 1.34 19.32 1 20 C0.29867087 13.29980211 -0.11044961 6.73742646 0 0 Z " fill="#292516" transform="translate(164,153)"/>
<path d="M0 0 C1.88391785 3.26545761 2.49287967 6.28111761 3 10 C1.33333333 10 -0.33333333 10 -2 10 C-2 11.65 -2 13.3 -2 15 C-2.33 15 -2.66 15 -3 15 C-2.88529863 13.24929483 -2.75780972 11.49942464 -2.625 9.75 C-2.55539062 8.77546875 -2.48578125 7.8009375 -2.4140625 6.796875 C-2.01534751 4.10366811 -1.36492937 2.33036721 0 0 Z " fill="#DABB3A" transform="translate(301,281)"/>
<path d="M0 0 C3.63 0 7.26 0 11 0 C12 4 12 4 11 6 C8.07120629 5.37240135 5.63904371 4.41377341 3 3 C3 2.34 3 1.68 3 1 C2.01 0.67 1.02 0.34 0 0 Z " fill="#363018" transform="translate(327,280)"/>
<path d="M0 0 C1.89213369 2.38573379 3.02391783 4.07175348 4 7 C4.66 7.33 5.32 7.66 6 8 C6 8.66 6 9.32 6 10 C5.34 10 4.68 10 4 10 C3.67 11.32 3.34 12.64 3 14 C2.71125 13.38125 2.4225 12.7625 2.125 12.125 C1.06279958 9.86674235 1.06279958 9.86674235 -1 8 C-0.96712417 5.27130593 -0.43602229 2.7033382 0 0 Z " fill="#D0B237" transform="translate(153,301)"/>
<path d="M0 0 C0.66 0 1.32 0 2 0 C0.51971824 4.44084528 -1.71983915 8.62922698 -5 12 C-7.1640625 12.703125 -7.1640625 12.703125 -9 13 C-7.6512925 10.04196519 -6.10431451 7.79203633 -3.9375 5.375 C-2.33621517 3.5818742 -1.07671842 2.15343684 0 0 Z " fill="#7B6A26" transform="translate(281,300)"/>
<path d="M0 0 C2 2 2 2 2 5 C-1.76624671 6.25541557 -3.37188934 5.37061958 -7 4 C-7 3.34 -7 2.68 -7 2 C-7.99 1.67 -8.98 1.34 -10 1 C-6.7 1.33 -3.4 1.66 0 2 C0 1.34 0 0.68 0 0 Z " fill="#332E18" transform="translate(146,279)"/>
<path d="M0 0 C2 2 2 2 2.1953125 5.0390625 C2.17210937 6.22242188 2.14890625 7.40578125 2.125 8.625 C2.10695313 9.81351563 2.08890625 11.00203125 2.0703125 12.2265625 C2.04710937 13.14179688 2.02390625 14.05703125 2 15 C1.67 15 1.34 15 1 15 C0.67 11.37 0.34 7.74 0 4 C-0.99 4.33 -1.98 4.66 -3 5 C-5.6875 4.0625 -5.6875 4.0625 -8 3 C-6 1 -6 1 -3.4375 0.9375 C-2.2309375 0.9684375 -2.2309375 0.9684375 -1 1 C-0.67 0.67 -0.34 0.34 0 0 Z " fill="#AA9230" transform="translate(279,130)"/>
<path d="M0 0 C0.99 0.33 1.98 0.66 3 1 C2.57781184 2.6498275 2.13675575 4.29483665 1.6875 5.9375 C1.44386719 6.85402344 1.20023437 7.77054687 0.94921875 8.71484375 C0.63597656 9.46894531 0.32273437 10.22304687 0 11 C-0.99 11.33 -1.98 11.66 -3 12 C-2.69106068 10.3743193 -2.3777305 8.74947252 -2.0625 7.125 C-1.88847656 6.22007813 -1.71445313 5.31515625 -1.53515625 4.3828125 C-1 2 -1 2 0 0 Z " fill="#776625" transform="translate(114,92)"/>
<path d="M0 0 C1.32 0.66 2.64 1.32 4 2 C3.74438677 4.3431213 3.40729228 6.67843403 3 9 C2.01 9.495 2.01 9.495 1 10 C0.34 9.34 -0.32 8.68 -1 8 C-0.96712417 5.27130593 -0.43602229 2.7033382 0 0 Z " fill="#4F451D" transform="translate(301,82)"/>
<path d="M0 0 C0.3449145 1.33038449 0.67516582 2.66457061 1 4 C1.2475 4.825 1.495 5.65 1.75 6.5 C2 9 2 9 0.5625 11.3125 C0.046875 11.869375 -0.46875 12.42625 -1 13 C-1.12375 12.360625 -1.2475 11.72125 -1.375 11.0625 C-1.58125 10.381875 -1.7875 9.70125 -2 9 C-2.66 8.67 -3.32 8.34 -4 8 C-2.87548273 5.0280615 -1.77706209 2.66559313 0 0 Z " fill="#E5C43C" transform="translate(292,78)"/>
<path d="M0 0 C0.33 0.99 0.66 1.98 1 3 C-0.8125 6.1875 -0.8125 6.1875 -3 9 C-3.66 9 -4.32 9 -5 9 C-5.33 9.99 -5.66 10.98 -6 12 C-6.99 12.33 -7.98 12.66 -9 13 C-7.50923566 9.7173068 -5.61379679 7.06922559 -3.375 4.25 C-2.74335938 3.45078125 -2.11171875 2.6515625 -1.4609375 1.828125 C-0.97882813 1.22484375 -0.49671875 0.6215625 0 0 Z " fill="#232014" transform="translate(288,306)"/>
<path d="M0 0 C5.12890273 3.8361382 7.92669153 6.90203392 10 13 C9.01 13 8.02 13 7 13 C5.4296875 10.91796875 5.4296875 10.91796875 3.875 8.1875 C3.35679688 7.29417969 2.83859375 6.40085937 2.3046875 5.48046875 C1 3 1 3 0 0 Z " fill="#756525" transform="translate(92,286)"/>
<path d="M0 0 C0.99 0.33 1.98 0.66 3 1 C2.77139942 2.46184058 2.51629608 3.91955419 2.25 5.375 C2.04117188 6.59316406 2.04117188 6.59316406 1.828125 7.8359375 C1 10 1 10 -1.078125 11.2890625 C-2.02945313 11.64097656 -2.02945313 11.64097656 -3 12 C-2.69106068 10.3743193 -2.3777305 8.74947252 -2.0625 7.125 C-1.88847656 6.22007812 -1.71445313 5.31515625 -1.53515625 4.3828125 C-1 2 -1 2 0 0 Z " fill="#776725" transform="translate(80,285)"/>
<path d="M0 0 C0.66 1.32 1.32 2.64 2 4 C1.01 4.33 0.02 4.66 -1 5 C-1.33 5.99 -1.66 6.98 -2 8 C-2.33 7.34 -2.66 6.68 -3 6 C-5.02463255 5.34786708 -5.02463255 5.34786708 -7 5 C-2.25 1.125 -2.25 1.125 0 0 Z " fill="#D2B438" transform="translate(310,273)"/>
<path d="M0 0 C1.65 1.65 3.3 3.3 5 5 C4.525625 5.391875 4.05125 5.78375 3.5625 6.1875 C1.64820367 8.40808374 1.38733012 10.13375709 1 13 C0.67 13 0.34 13 0 13 C0 8.71 0 4.42 0 0 Z " fill="#625621" transform="translate(271,340)"/>
<path d="M0 0 C1.17487036 0.75827092 2.33972592 1.53207755 3.5 2.3125 C4.47453125 2.95638672 4.47453125 2.95638672 5.46875 3.61328125 C5.9740625 4.07089844 6.479375 4.52851563 7 5 C7 5.99 7 6.98 7 8 C4.03 7.505 4.03 7.505 1 7 C0.67 4.69 0.34 2.38 0 0 Z " fill="#6F6024" transform="translate(276,263)"/>
<path d="M0 0 C0.66 0.33 1.32 0.66 2 1 C1.1875 4.4375 1.1875 4.4375 0 8 C-0.99 8.33 -1.98 8.66 -3 9 C-3.66 9.66 -4.32 10.32 -5 11 C-4.67 9.02 -4.34 7.04 -4 5 C-3.01 5 -2.02 5 -1 5 C-0.67 3.35 -0.34 1.7 0 0 Z " fill="#5E5220" transform="translate(173,297)"/>
<path d="M0 0 C0.33 0 0.66 0 1 0 C1.10655578 6.44070471 0.96205088 12.62641289 0 19 C-0.66 18.67 -1.32 18.34 -2 18 C-2 15.03 -2 12.06 -2 9 C-1.34 9 -0.68 9 0 9 C0 6.03 0 3.06 0 0 Z " fill="#393319" transform="translate(166,134)"/>
<path d="M0 0 C0.66 0.33 1.32 0.66 2 1 C2 4.63 2 8.26 2 12 C1.34 11.67 0.68 11.34 0 11 C0 10.34 0 9.68 0 9 C-0.66 8.67 -1.32 8.34 -2 8 C-1.67 7.67 -1.34 7.34 -1 7 C-0.63239269 4.67182036 -0.29758419 2.3381615 0 0 Z " fill="#4C421C" transform="translate(163,161)"/>
<path d="M0 0 C0.33 0.66 0.66 1.32 1 2 C3.97 2 6.94 2 10 2 C10 2.33 10 2.66 10 3 C9.09507813 3.09087891 9.09507813 3.09087891 8.171875 3.18359375 C6.97304687 3.30927734 6.97304687 3.30927734 5.75 3.4375 C4.96109375 3.51871094 4.1721875 3.59992188 3.359375 3.68359375 C1.17635361 3.97634993 -0.8773182 4.42064419 -3 5 C-3.33 4.34 -3.66 3.68 -4 3 C-3.34 3 -2.68 3 -2 3 C-2 2.34 -2 1.68 -2 1 C-1.34 0.67 -0.68 0.34 0 0 Z " fill="#CAAD36" transform="translate(117,365)"/>
<path d="M0 0 C0.99 0.33 1.98 0.66 3 1 C3.66 1 4.32 1 5 1 C5.66 2.65 6.32 4.3 7 6 C6.01 6.66 5.02 7.32 4 8 C4 7.01 4 6.02 4 5 C3.01 4.67 2.02 4.34 1 4 C0.3125 1.9375 0.3125 1.9375 0 0 Z " fill="#99842C" transform="translate(292,77)"/>
<path d="M0 0 C0 3.23655184 -0.6550847 4.78752639 -2 7.6875 C-2.37125 8.49574219 -2.7425 9.30398438 -3.125 10.13671875 C-3.41375 10.75160156 -3.7025 11.36648438 -4 12 C-4.66 10.68 -5.32 9.36 -6 8 C-2.25 2.25 -2.25 2.25 0 0 Z " fill="#DABB39" transform="translate(115,276)"/>
<path d="M0 0 C1.9375 0.375 1.9375 0.375 4 1 C4.33 1.66 4.66 2.32 5 3 C4.67 3.66 4.34 4.32 4 5 C2.68 5 1.36 5 0 5 C0 4.34 0 3.68 0 3 C-0.99 2.67 -1.98 2.34 -3 2 C-2.01 2 -1.02 2 0 2 C0 1.34 0 0.68 0 0 Z " fill="#605421" transform="translate(333,276)"/>
<path d="M0 0 C2 1.1875 2 1.1875 4 3 C4.25 5.6875 4.25 5.6875 4 8 C2.0625 7.3125 2.0625 7.3125 0 6 C-0.8125 3.4375 -0.8125 3.4375 -1 1 C-0.67 0.67 -0.34 0.34 0 0 Z " fill="#D1B337" transform="translate(149,164)"/>
<path d="M0 0 C0.66 0 1.32 0 2 0 C3.125 2.25 3.125 2.25 4 5 C3.125 7.3125 3.125 7.3125 2 9 C-1 4.375 -1 4.375 -1 1 C-0.67 0.67 -0.34 0.34 0 0 Z " fill="#3F381A" transform="translate(203,80)"/>
<path d="M0 0 C0.66 0.66 1.32 1.32 2 2 C0.35 5.3 -1.3 8.6 -3 12 C-4.21386936 8.35839192 -3.6674695 7.66834531 -2.0625 4.3125 C-1.49208984 3.10013672 -1.49208984 3.10013672 -0.91015625 1.86328125 C-0.60980469 1.24839844 -0.30945313 0.63351562 0 0 Z " fill="#4A411C" transform="translate(102,342)"/>
<path d="M0 0 C3 1 3 1 4.75 3.4375 C5.36875 4.7059375 5.36875 4.7059375 6 6 C5.67 6.66 5.34 7.32 5 8 C4.34 8 3.68 8 3 8 C0 2.25 0 2.25 0 0 Z " fill="#7A6926" transform="translate(286,342)"/>
<path d="M0 0 C0.99 0 1.98 0 3 0 C2.67 1.65 2.34 3.3 2 5 C1.34 5 0.68 5 0 5 C0 5.66 0 6.32 0 7 C-0.66 7 -1.32 7 -2 7 C-1.34 4.69 -0.68 2.38 0 0 Z " fill="#D7B839" transform="translate(157,289)"/>
<path d="M0 0 C3.875 1.875 3.875 1.875 5 3 C5 3.66 5 4.32 5 5 C3.35 5.33 1.7 5.66 0 6 C0 5.34 0 4.68 0 4 C-1.32 3.67 -2.64 3.34 -4 3 C-3.01 2.67 -2.02 2.34 -1 2 C-0.67 1.34 -0.34 0.68 0 0 Z " fill="#8E7A2A" transform="translate(133,271)"/>
<path d="M0 0 C2 2 2 2 2.125 5.625 C2.08375 6.73875 2.0425 7.8525 2 9 C0.68 8.67 -0.64 8.34 -2 8 C-1.33333333 5.33333333 -0.66666667 2.66666667 0 0 Z " fill="#C6AA35" transform="translate(157,158)"/>
<path d="M0 0 C0.99 0 1.98 0 3 0 C3 2.64 3 5.28 3 8 C2.01 8 1.02 8 0 8 C0 5.36 0 2.72 0 0 Z " fill="#7A6926" transform="translate(183,156)"/>
<path d="M0 0 C0.99 0 1.98 0 3 0 C2.67 1.32 2.34 2.64 2 4 C0.02 4 -1.96 4 -4 4 C-4.33 4.66 -4.66 5.32 -5 6 C-5.33 4.68 -5.66 3.36 -6 2 C-3.69 2.33 -1.38 2.66 1 3 C0.67 2.01 0.34 1.02 0 0 Z " fill="#AB9330" transform="translate(86,273)"/>
<path d="M0 0 C0.66 0.33 1.32 0.66 2 1 C1.34 3.64 0.68 6.28 0 9 C-0.66 9 -1.32 9 -2 9 C-2 7.02 -2 5.04 -2 3 C-1.34 3 -0.68 3 0 3 C0 2.01 0 1.02 0 0 Z " fill="#5F5220" transform="translate(202,160)"/>
<path d="M0 0 C0.99 0 1.98 0 3 0 C2.67 1.32 2.34 2.64 2 4 C0.02 4 -1.96 4 -4 4 C-4.33 4.66 -4.66 5.32 -5 6 C-5.33 4.68 -5.66 3.36 -6 2 C-3.69 2.33 -1.38 2.66 1 3 C0.67 2.01 0.34 1.02 0 0 Z " fill="#AB9330" transform="translate(120,80)"/>
<path d="M0 0 C2.31 0.33 4.62 0.66 7 1 C6.67 1.99 6.34 2.98 6 4 C4.35 4 2.7 4 1 4 C0.67 2.68 0.34 1.36 0 0 Z " fill="#383219" transform="translate(126,270)"/>
<path d="M0 0 C0.99 0.33 1.98 0.66 3 1 C3 1.66 3 2.32 3 3 C3.66 3.33 4.32 3.66 5 4 C4.67 4.66 4.34 5.32 4 6 C3.01 6.33 2.02 6.66 1 7 C0.31292445 4.50935112 0 2.62113708 0 0 Z " fill="#EBC93D" transform="translate(302,280)"/>
<path d="M0 0 C2.475 0.495 2.475 0.495 5 1 C5 2.65 5 4.3 5 6 C3.0625 5.25 3.0625 5.25 1 4 C0.25 1.875 0.25 1.875 0 0 Z " fill="#5B4F1F" transform="translate(154,172)"/>
<path d="M0 0 C0.103125 0.639375 0.20625 1.27875 0.3125 1.9375 C0.539375 2.618125 0.76625 3.29875 1 4 C1.99 4.33 2.98 4.66 4 5 C3.01 5 2.02 5 1 5 C0.67 7.31 0.34 9.62 0 12 C-0.33 12 -0.66 12 -1 12 C-1.14285714 3.42857143 -1.14285714 3.42857143 0 0 Z " fill="#BBA033" transform="translate(189,70)"/>
<path d="M0 0 C1.5625 1.125 1.5625 1.125 3 3 C2.6875 6.1875 2.6875 6.1875 2 9 C0.14223235 5.86501708 -0.20140476 3.62528568 0 0 Z " fill="#716224" transform="translate(292,350)"/>
<path d="M0 0 C1.35015859 4.05047576 0.62084998 6.7920168 0 11 C-0.99 9.68 -1.98 8.36 -3 7 C-2.01 4.69 -1.02 2.38 0 0 Z " fill="#B79D32" transform="translate(190,316)"/>
<path d="M0 0 C1.0625 1.8125 1.0625 1.8125 2 4 C1.67 4.99 1.34 5.98 1 7 C0.01 7 -0.98 7 -2 7 C-1.125 2.25 -1.125 2.25 0 0 Z " fill="#CCAF37" transform="translate(301,281)"/>
<path d="M0 0 C0.66 0 1.32 0 2 0 C2.66 2.31 3.32 4.62 4 7 C3.34 7.66 2.68 8.32 2 9 C2 8.34 2 7.68 2 7 C1.34 7 0.68 7 0 7 C0.33 6.01 0.66 5.02 1 4 C0.61067144 1.85744207 0.61067144 1.85744207 0 0 Z " fill="#BAA033" transform="translate(197,74)"/>
</svg>
